<mxfile host="app.diagrams.net" modified="2023-10-20T10:34:10.179Z" agent="Mozilla/5.0 (Windows NT 10.0; Win64; x64) AppleWebKit/537.36 (KHTML, like Gecko) Chrome/118.0.0.0 Safari/537.36" etag="vRoOIa3GYycWbNgIwt7Y" version="22.0.5" type="google">
  <diagram name="Page-1" id="M89ZDp_-Jjv5N7KUq2rY">
    <mxGraphModel grid="1" page="1" gridSize="10" guides="1" tooltips="1" connect="1" arrows="1" fold="1" pageScale="1" pageWidth="827" pageHeight="1169" math="0" shadow="0">
      <root>
        <mxCell id="0" />
        <mxCell id="1" parent="0" />
        <mxCell id="-2fefE5qPqeVteU1_bwN-47" value="Student Controller" style="swimlane;fontStyle=1;align=center;verticalAlign=top;childLayout=stackLayout;horizontal=1;startSize=26;horizontalStack=0;resizeParent=1;resizeParentMax=0;resizeLast=0;collapsible=1;marginBottom=0;whiteSpace=wrap;html=1;" vertex="1" parent="1">
          <mxGeometry x="970" y="-2200" width="243" height="182" as="geometry" />
        </mxCell>
        <mxCell id="-2fefE5qPqeVteU1_bwN-52" value="+ PrintService(): void" style="text;strokeColor=none;fillColor=none;align=left;verticalAlign=top;spacingLeft=4;spacingRight=4;overflow=hidden;rotatable=0;points=[[0,0.5],[1,0.5]];portConstraint=eastwest;whiteSpace=wrap;html=1;" vertex="1" parent="-2fefE5qPqeVteU1_bwN-47">
          <mxGeometry y="26" width="243" height="26" as="geometry" />
        </mxCell>
        <mxCell id="-2fefE5qPqeVteU1_bwN-53" value="+ ViewPrintingHistory(): void" style="text;strokeColor=none;fillColor=none;align=left;verticalAlign=top;spacingLeft=4;spacingRight=4;overflow=hidden;rotatable=0;points=[[0,0.5],[1,0.5]];portConstraint=eastwest;whiteSpace=wrap;html=1;" vertex="1" parent="-2fefE5qPqeVteU1_bwN-47">
          <mxGeometry y="52" width="243" height="26" as="geometry" />
        </mxCell>
        <mxCell id="ItrZ0QdOtL7fP3LYCYVQ-3" value="+ ViewPrintingService(): void" style="text;strokeColor=none;fillColor=none;align=left;verticalAlign=top;spacingLeft=4;spacingRight=4;overflow=hidden;rotatable=0;points=[[0,0.5],[1,0.5]];portConstraint=eastwest;whiteSpace=wrap;html=1;" vertex="1" parent="-2fefE5qPqeVteU1_bwN-47">
          <mxGeometry y="78" width="243" height="26" as="geometry" />
        </mxCell>
        <mxCell id="ItrZ0QdOtL7fP3LYCYVQ-5" value="+ ViewPurchasePageService(): void" style="text;strokeColor=none;fillColor=none;align=left;verticalAlign=top;spacingLeft=4;spacingRight=4;overflow=hidden;rotatable=0;points=[[0,0.5],[1,0.5]];portConstraint=eastwest;whiteSpace=wrap;html=1;" vertex="1" parent="-2fefE5qPqeVteU1_bwN-47">
          <mxGeometry y="104" width="243" height="26" as="geometry" />
        </mxCell>
        <mxCell id="-2fefE5qPqeVteU1_bwN-54" value="+ Login(): void" style="text;strokeColor=none;fillColor=none;align=left;verticalAlign=top;spacingLeft=4;spacingRight=4;overflow=hidden;rotatable=0;points=[[0,0.5],[1,0.5]];portConstraint=eastwest;whiteSpace=wrap;html=1;" vertex="1" parent="-2fefE5qPqeVteU1_bwN-47">
          <mxGeometry y="130" width="243" height="26" as="geometry" />
        </mxCell>
        <mxCell id="-2fefE5qPqeVteU1_bwN-55" value="+ Logout(): void" style="text;strokeColor=none;fillColor=none;align=left;verticalAlign=top;spacingLeft=4;spacingRight=4;overflow=hidden;rotatable=0;points=[[0,0.5],[1,0.5]];portConstraint=eastwest;whiteSpace=wrap;html=1;" vertex="1" parent="-2fefE5qPqeVteU1_bwN-47">
          <mxGeometry y="156" width="243" height="26" as="geometry" />
        </mxCell>
        <mxCell id="-2fefE5qPqeVteU1_bwN-79" value="Student View History Controller" style="swimlane;fontStyle=1;align=center;verticalAlign=top;childLayout=stackLayout;horizontal=1;startSize=26;horizontalStack=0;resizeParent=1;resizeParentMax=0;resizeLast=0;collapsible=1;marginBottom=0;whiteSpace=wrap;html=1;" vertex="1" parent="1">
          <mxGeometry x="670" y="-1990" width="250" height="104" as="geometry" />
        </mxCell>
        <mxCell id="-2fefE5qPqeVteU1_bwN-82" value="+ ApplyFilterToPrinter(): void" style="text;strokeColor=none;fillColor=none;align=left;verticalAlign=top;spacingLeft=4;spacingRight=4;overflow=hidden;rotatable=0;points=[[0,0.5],[1,0.5]];portConstraint=eastwest;whiteSpace=wrap;html=1;" vertex="1" parent="-2fefE5qPqeVteU1_bwN-79">
          <mxGeometry y="26" width="250" height="26" as="geometry" />
        </mxCell>
        <mxCell id="-2fefE5qPqeVteU1_bwN-83" value="+ ApplyFilterToPageSize(): void" style="text;strokeColor=none;fillColor=none;align=left;verticalAlign=top;spacingLeft=4;spacingRight=4;overflow=hidden;rotatable=0;points=[[0,0.5],[1,0.5]];portConstraint=eastwest;whiteSpace=wrap;html=1;" vertex="1" parent="-2fefE5qPqeVteU1_bwN-79">
          <mxGeometry y="52" width="250" height="26" as="geometry" />
        </mxCell>
        <mxCell id="-2fefE5qPqeVteU1_bwN-84" value="+ ApplyFilterToDatetime(): void" style="text;strokeColor=none;fillColor=none;align=left;verticalAlign=top;spacingLeft=4;spacingRight=4;overflow=hidden;rotatable=0;points=[[0,0.5],[1,0.5]];portConstraint=eastwest;whiteSpace=wrap;html=1;" vertex="1" parent="-2fefE5qPqeVteU1_bwN-79">
          <mxGeometry y="78" width="250" height="26" as="geometry" />
        </mxCell>
        <mxCell id="-2fefE5qPqeVteU1_bwN-85" value="View Report Controller" style="swimlane;fontStyle=1;align=center;verticalAlign=top;childLayout=stackLayout;horizontal=1;startSize=26;horizontalStack=0;resizeParent=1;resizeParentMax=0;resizeLast=0;collapsible=1;marginBottom=0;whiteSpace=wrap;html=1;" vertex="1" parent="1">
          <mxGeometry x="-380" y="-1990" width="250" height="130" as="geometry" />
        </mxCell>
        <mxCell id="-2fefE5qPqeVteU1_bwN-86" value="+ LoadRealTimeReport(): void&lt;span style=&quot;white-space: pre;&quot;&gt;&#x9;&lt;/span&gt;" style="text;strokeColor=none;fillColor=none;align=left;verticalAlign=top;spacingLeft=4;spacingRight=4;overflow=hidden;rotatable=0;points=[[0,0.5],[1,0.5]];portConstraint=eastwest;whiteSpace=wrap;html=1;" vertex="1" parent="-2fefE5qPqeVteU1_bwN-85">
          <mxGeometry y="26" width="250" height="26" as="geometry" />
        </mxCell>
        <mxCell id="-2fefE5qPqeVteU1_bwN-87" value="+ LoadOldReport(): void" style="text;strokeColor=none;fillColor=none;align=left;verticalAlign=top;spacingLeft=4;spacingRight=4;overflow=hidden;rotatable=0;points=[[0,0.5],[1,0.5]];portConstraint=eastwest;whiteSpace=wrap;html=1;" vertex="1" parent="-2fefE5qPqeVteU1_bwN-85">
          <mxGeometry y="52" width="250" height="26" as="geometry" />
        </mxCell>
        <mxCell id="-2fefE5qPqeVteU1_bwN-88" value="+ ExportReport(): void" style="text;strokeColor=none;fillColor=none;align=left;verticalAlign=top;spacingLeft=4;spacingRight=4;overflow=hidden;rotatable=0;points=[[0,0.5],[1,0.5]];portConstraint=eastwest;whiteSpace=wrap;html=1;" vertex="1" parent="-2fefE5qPqeVteU1_bwN-85">
          <mxGeometry y="78" width="250" height="26" as="geometry" />
        </mxCell>
        <mxCell id="-2fefE5qPqeVteU1_bwN-89" value="+ SetConfigurationForAutoGeneration(): void" style="text;strokeColor=none;fillColor=none;align=left;verticalAlign=top;spacingLeft=4;spacingRight=4;overflow=hidden;rotatable=0;points=[[0,0.5],[1,0.5]];portConstraint=eastwest;whiteSpace=wrap;html=1;" vertex="1" parent="-2fefE5qPqeVteU1_bwN-85">
          <mxGeometry y="104" width="250" height="26" as="geometry" />
        </mxCell>
        <mxCell id="-2fefE5qPqeVteU1_bwN-90" value="" style="endArrow=none;html=1;rounded=0;exitX=1;exitY=0.5;exitDx=0;exitDy=0;entryX=0.5;entryY=0;entryDx=0;entryDy=0;" edge="1" parent="1" source="-2fefE5qPqeVteU1_bwN-120" target="JamPujIQLc3dVyAJOux4-1">
          <mxGeometry width="50" height="50" relative="1" as="geometry">
            <mxPoint x="82.00000000000045" y="-1734.0000000000002" as="sourcePoint" />
            <mxPoint x="330" y="-1730" as="targetPoint" />
          </mxGeometry>
        </mxCell>
        <mxCell id="-2fefE5qPqeVteU1_bwN-91" value="" style="endArrow=none;html=1;rounded=0;exitX=0;exitY=0.5;exitDx=0;exitDy=0;entryX=0.5;entryY=0;entryDx=0;entryDy=0;" edge="1" parent="1" source="-2fefE5qPqeVteU1_bwN-53" target="-2fefE5qPqeVteU1_bwN-79">
          <mxGeometry width="50" height="50" relative="1" as="geometry">
            <mxPoint x="92" y="-1724" as="sourcePoint" />
            <mxPoint x="765" y="-1565" as="targetPoint" />
          </mxGeometry>
        </mxCell>
        <mxCell id="-2fefE5qPqeVteU1_bwN-92" value="" style="endArrow=none;html=1;rounded=0;exitX=0;exitY=0.5;exitDx=0;exitDy=0;entryX=0.5;entryY=0;entryDx=0;entryDy=0;" edge="1" parent="1" source="-2fefE5qPqeVteU1_bwN-120" target="-2fefE5qPqeVteU1_bwN-85">
          <mxGeometry width="50" height="50" relative="1" as="geometry">
            <mxPoint x="-120" y="-1734.0000000000002" as="sourcePoint" />
            <mxPoint x="349" y="-1592" as="targetPoint" />
          </mxGeometry>
        </mxCell>
        <mxCell id="-2fefE5qPqeVteU1_bwN-106" value="Student Home View" style="swimlane;fontStyle=1;align=center;verticalAlign=top;childLayout=stackLayout;horizontal=1;startSize=26;horizontalStack=0;resizeParent=1;resizeParentMax=0;resizeLast=0;collapsible=1;marginBottom=0;whiteSpace=wrap;html=1;" vertex="1" parent="1">
          <mxGeometry x="970" y="-1880" width="257.5" height="208" as="geometry" />
        </mxCell>
        <mxCell id="-2fefE5qPqeVteU1_bwN-107" value="+ OnPrintClick(): void" style="text;strokeColor=none;fillColor=none;align=left;verticalAlign=top;spacingLeft=4;spacingRight=4;overflow=hidden;rotatable=0;points=[[0,0.5],[1,0.5]];portConstraint=eastwest;whiteSpace=wrap;html=1;" vertex="1" parent="-2fefE5qPqeVteU1_bwN-106">
          <mxGeometry y="26" width="257.5" height="26" as="geometry" />
        </mxCell>
        <mxCell id="-2fefE5qPqeVteU1_bwN-108" value="+ OnViewHistoryClick(): void" style="text;strokeColor=none;fillColor=none;align=left;verticalAlign=top;spacingLeft=4;spacingRight=4;overflow=hidden;rotatable=0;points=[[0,0.5],[1,0.5]];portConstraint=eastwest;whiteSpace=wrap;html=1;" vertex="1" parent="-2fefE5qPqeVteU1_bwN-106">
          <mxGeometry y="52" width="257.5" height="26" as="geometry" />
        </mxCell>
        <mxCell id="-2fefE5qPqeVteU1_bwN-109" value="+ OnViewProfileClick(): void" style="text;strokeColor=none;fillColor=none;align=left;verticalAlign=top;spacingLeft=4;spacingRight=4;overflow=hidden;rotatable=0;points=[[0,0.5],[1,0.5]];portConstraint=eastwest;whiteSpace=wrap;html=1;" vertex="1" parent="-2fefE5qPqeVteU1_bwN-106">
          <mxGeometry y="78" width="257.5" height="26" as="geometry" />
        </mxCell>
        <mxCell id="ItrZ0QdOtL7fP3LYCYVQ-4" value="+ OnViewPrintingServiceClick(): void" style="text;strokeColor=none;fillColor=none;align=left;verticalAlign=top;spacingLeft=4;spacingRight=4;overflow=hidden;rotatable=0;points=[[0,0.5],[1,0.5]];portConstraint=eastwest;whiteSpace=wrap;html=1;" vertex="1" parent="-2fefE5qPqeVteU1_bwN-106">
          <mxGeometry y="104" width="257.5" height="26" as="geometry" />
        </mxCell>
        <mxCell id="ItrZ0QdOtL7fP3LYCYVQ-6" value="+ OnViewPurchasePageServiceClick(): void" style="text;strokeColor=none;fillColor=none;align=left;verticalAlign=top;spacingLeft=4;spacingRight=4;overflow=hidden;rotatable=0;points=[[0,0.5],[1,0.5]];portConstraint=eastwest;whiteSpace=wrap;html=1;" vertex="1" parent="-2fefE5qPqeVteU1_bwN-106">
          <mxGeometry y="130" width="257.5" height="26" as="geometry" />
        </mxCell>
        <mxCell id="-2fefE5qPqeVteU1_bwN-110" value="+ OnLoginClick(): void" style="text;strokeColor=none;fillColor=none;align=left;verticalAlign=top;spacingLeft=4;spacingRight=4;overflow=hidden;rotatable=0;points=[[0,0.5],[1,0.5]];portConstraint=eastwest;whiteSpace=wrap;html=1;" vertex="1" parent="-2fefE5qPqeVteU1_bwN-106">
          <mxGeometry y="156" width="257.5" height="26" as="geometry" />
        </mxCell>
        <mxCell id="-2fefE5qPqeVteU1_bwN-111" value="+ OnLogoutClick(): void" style="text;strokeColor=none;fillColor=none;align=left;verticalAlign=top;spacingLeft=4;spacingRight=4;overflow=hidden;rotatable=0;points=[[0,0.5],[1,0.5]];portConstraint=eastwest;whiteSpace=wrap;html=1;" vertex="1" parent="-2fefE5qPqeVteU1_bwN-106">
          <mxGeometry y="182" width="257.5" height="26" as="geometry" />
        </mxCell>
        <mxCell id="-2fefE5qPqeVteU1_bwN-112" value="SPSO Home View" style="swimlane;fontStyle=1;align=center;verticalAlign=top;childLayout=stackLayout;horizontal=1;startSize=26;horizontalStack=0;resizeParent=1;resizeParentMax=0;resizeLast=0;collapsible=1;marginBottom=0;whiteSpace=wrap;html=1;" vertex="1" parent="1">
          <mxGeometry x="-53.5" y="-1840" width="170" height="182" as="geometry" />
        </mxCell>
        <mxCell id="-2fefE5qPqeVteU1_bwN-113" value="+ OnViewHistoryClick(): void" style="text;strokeColor=none;fillColor=none;align=left;verticalAlign=top;spacingLeft=4;spacingRight=4;overflow=hidden;rotatable=0;points=[[0,0.5],[1,0.5]];portConstraint=eastwest;whiteSpace=wrap;html=1;" vertex="1" parent="-2fefE5qPqeVteU1_bwN-112">
          <mxGeometry y="26" width="170" height="26" as="geometry" />
        </mxCell>
        <mxCell id="-2fefE5qPqeVteU1_bwN-114" value="+ OnViewReportClick(): void" style="text;strokeColor=none;fillColor=none;align=left;verticalAlign=top;spacingLeft=4;spacingRight=4;overflow=hidden;rotatable=0;points=[[0,0.5],[1,0.5]];portConstraint=eastwest;whiteSpace=wrap;html=1;" vertex="1" parent="-2fefE5qPqeVteU1_bwN-112">
          <mxGeometry y="52" width="170" height="26" as="geometry" />
        </mxCell>
        <mxCell id="ItrZ0QdOtL7fP3LYCYVQ-2" value="+ OnViewConfigClick(): void" style="text;strokeColor=none;fillColor=none;align=left;verticalAlign=top;spacingLeft=4;spacingRight=4;overflow=hidden;rotatable=0;points=[[0,0.5],[1,0.5]];portConstraint=eastwest;whiteSpace=wrap;html=1;" vertex="1" parent="-2fefE5qPqeVteU1_bwN-112">
          <mxGeometry y="78" width="170" height="26" as="geometry" />
        </mxCell>
        <mxCell id="-2fefE5qPqeVteU1_bwN-115" value="+ OnViewProfileClick(): void" style="text;strokeColor=none;fillColor=none;align=left;verticalAlign=top;spacingLeft=4;spacingRight=4;overflow=hidden;rotatable=0;points=[[0,0.5],[1,0.5]];portConstraint=eastwest;whiteSpace=wrap;html=1;" vertex="1" parent="-2fefE5qPqeVteU1_bwN-112">
          <mxGeometry y="104" width="170" height="26" as="geometry" />
        </mxCell>
        <mxCell id="-2fefE5qPqeVteU1_bwN-116" value="+ OnLoginClick(): void" style="text;strokeColor=none;fillColor=none;align=left;verticalAlign=top;spacingLeft=4;spacingRight=4;overflow=hidden;rotatable=0;points=[[0,0.5],[1,0.5]];portConstraint=eastwest;whiteSpace=wrap;html=1;" vertex="1" parent="-2fefE5qPqeVteU1_bwN-112">
          <mxGeometry y="130" width="170" height="26" as="geometry" />
        </mxCell>
        <mxCell id="-2fefE5qPqeVteU1_bwN-117" value="+ OnLogoutClick(): void" style="text;strokeColor=none;fillColor=none;align=left;verticalAlign=top;spacingLeft=4;spacingRight=4;overflow=hidden;rotatable=0;points=[[0,0.5],[1,0.5]];portConstraint=eastwest;whiteSpace=wrap;html=1;" vertex="1" parent="-2fefE5qPqeVteU1_bwN-112">
          <mxGeometry y="156" width="170" height="26" as="geometry" />
        </mxCell>
        <mxCell id="-2fefE5qPqeVteU1_bwN-118" value="SPSO Controller" style="swimlane;fontStyle=1;align=center;verticalAlign=top;childLayout=stackLayout;horizontal=1;startSize=26;horizontalStack=0;resizeParent=1;resizeParentMax=0;resizeLast=0;collapsible=1;marginBottom=0;whiteSpace=wrap;html=1;" vertex="1" parent="1">
          <mxGeometry x="-60" y="-2200" width="183" height="156" as="geometry" />
        </mxCell>
        <mxCell id="-2fefE5qPqeVteU1_bwN-119" value="+ ViewPrintingHistory(): void" style="text;strokeColor=none;fillColor=none;align=left;verticalAlign=top;spacingLeft=4;spacingRight=4;overflow=hidden;rotatable=0;points=[[0,0.5],[1,0.5]];portConstraint=eastwest;whiteSpace=wrap;html=1;" vertex="1" parent="-2fefE5qPqeVteU1_bwN-118">
          <mxGeometry y="26" width="183" height="26" as="geometry" />
        </mxCell>
        <mxCell id="-2fefE5qPqeVteU1_bwN-120" value="+ ViewReports(): void" style="text;strokeColor=none;fillColor=none;align=left;verticalAlign=top;spacingLeft=4;spacingRight=4;overflow=hidden;rotatable=0;points=[[0,0.5],[1,0.5]];portConstraint=eastwest;whiteSpace=wrap;html=1;" vertex="1" parent="-2fefE5qPqeVteU1_bwN-118">
          <mxGeometry y="52" width="183" height="26" as="geometry" />
        </mxCell>
        <mxCell id="ItrZ0QdOtL7fP3LYCYVQ-1" value="+ ViewConfig(): void" style="text;strokeColor=none;fillColor=none;align=left;verticalAlign=top;spacingLeft=4;spacingRight=4;overflow=hidden;rotatable=0;points=[[0,0.5],[1,0.5]];portConstraint=eastwest;whiteSpace=wrap;html=1;" vertex="1" parent="-2fefE5qPqeVteU1_bwN-118">
          <mxGeometry y="78" width="183" height="26" as="geometry" />
        </mxCell>
        <mxCell id="-2fefE5qPqeVteU1_bwN-121" value="+ Login(): void" style="text;strokeColor=none;fillColor=none;align=left;verticalAlign=top;spacingLeft=4;spacingRight=4;overflow=hidden;rotatable=0;points=[[0,0.5],[1,0.5]];portConstraint=eastwest;whiteSpace=wrap;html=1;" vertex="1" parent="-2fefE5qPqeVteU1_bwN-118">
          <mxGeometry y="104" width="183" height="26" as="geometry" />
        </mxCell>
        <mxCell id="-2fefE5qPqeVteU1_bwN-122" value="+ Logout(): void" style="text;strokeColor=none;fillColor=none;align=left;verticalAlign=top;spacingLeft=4;spacingRight=4;overflow=hidden;rotatable=0;points=[[0,0.5],[1,0.5]];portConstraint=eastwest;whiteSpace=wrap;html=1;" vertex="1" parent="-2fefE5qPqeVteU1_bwN-118">
          <mxGeometry y="130" width="183" height="26" as="geometry" />
        </mxCell>
        <mxCell id="-2fefE5qPqeVteU1_bwN-140" value="Printing Log DB" style="swimlane;fontStyle=1;align=center;verticalAlign=top;childLayout=stackLayout;horizontal=1;startSize=30;horizontalStack=0;resizeParent=1;resizeParentMax=0;resizeLast=0;collapsible=1;marginBottom=0;whiteSpace=wrap;html=1;" vertex="1" parent="1">
          <mxGeometry x="405" y="-1430" width="240" height="186" as="geometry">
            <mxRectangle x="590" y="550" width="130" height="30" as="alternateBounds" />
          </mxGeometry>
        </mxCell>
        <mxCell id="-2fefE5qPqeVteU1_bwN-141" value="+ CreateNew(): void" style="text;strokeColor=none;fillColor=none;align=left;verticalAlign=top;spacingLeft=4;spacingRight=4;overflow=hidden;rotatable=0;points=[[0,0.5],[1,0.5]];portConstraint=eastwest;whiteSpace=wrap;html=1;" vertex="1" parent="-2fefE5qPqeVteU1_bwN-140">
          <mxGeometry y="30" width="240" height="26" as="geometry" />
        </mxCell>
        <mxCell id="-2fefE5qPqeVteU1_bwN-142" value="+ FilterLogByDatetime(Date): Log[]" style="text;strokeColor=none;fillColor=none;align=left;verticalAlign=top;spacingLeft=4;spacingRight=4;overflow=hidden;rotatable=0;points=[[0,0.5],[1,0.5]];portConstraint=eastwest;whiteSpace=wrap;html=1;" vertex="1" parent="-2fefE5qPqeVteU1_bwN-140">
          <mxGeometry y="56" width="240" height="26" as="geometry" />
        </mxCell>
        <mxCell id="-2fefE5qPqeVteU1_bwN-143" value="+ FilterLogByStudent(Student): Log[]" style="text;strokeColor=none;fillColor=none;align=left;verticalAlign=top;spacingLeft=4;spacingRight=4;overflow=hidden;rotatable=0;points=[[0,0.5],[1,0.5]];portConstraint=eastwest;whiteSpace=wrap;html=1;" vertex="1" parent="-2fefE5qPqeVteU1_bwN-140">
          <mxGeometry y="82" width="240" height="26" as="geometry" />
        </mxCell>
        <mxCell id="-2fefE5qPqeVteU1_bwN-144" value="+ FIlterLogByPrinter(Printer): Log[]" style="text;strokeColor=none;fillColor=none;align=left;verticalAlign=top;spacingLeft=4;spacingRight=4;overflow=hidden;rotatable=0;points=[[0,0.5],[1,0.5]];portConstraint=eastwest;whiteSpace=wrap;html=1;" vertex="1" parent="-2fefE5qPqeVteU1_bwN-140">
          <mxGeometry y="108" width="240" height="26" as="geometry" />
        </mxCell>
        <mxCell id="-2fefE5qPqeVteU1_bwN-145" value="+ FilterLogByPageSize(PageSize): Log[]" style="text;strokeColor=none;fillColor=none;align=left;verticalAlign=top;spacingLeft=4;spacingRight=4;overflow=hidden;rotatable=0;points=[[0,0.5],[1,0.5]];portConstraint=eastwest;whiteSpace=wrap;html=1;" vertex="1" parent="-2fefE5qPqeVteU1_bwN-140">
          <mxGeometry y="134" width="240" height="26" as="geometry" />
        </mxCell>
        <mxCell id="-2fefE5qPqeVteU1_bwN-146" value="+GetListHistoryRecord(): Log[]" style="text;strokeColor=none;fillColor=none;align=left;verticalAlign=top;spacingLeft=4;spacingRight=4;overflow=hidden;rotatable=0;points=[[0,0.5],[1,0.5]];portConstraint=eastwest;whiteSpace=wrap;html=1;" vertex="1" parent="-2fefE5qPqeVteU1_bwN-140">
          <mxGeometry y="160" width="240" height="26" as="geometry" />
        </mxCell>
        <mxCell id="-2fefE5qPqeVteU1_bwN-147" value="" style="endArrow=diamondThin;endFill=0;endSize=24;html=1;rounded=0;entryX=0.492;entryY=1.104;entryDx=0;entryDy=0;entryPerimeter=0;exitX=0.5;exitY=0;exitDx=0;exitDy=0;" edge="1" parent="1" source="jFbyu0e2e_yvfK8VAuCt-5" target="-2fefE5qPqeVteU1_bwN-146">
          <mxGeometry width="160" relative="1" as="geometry">
            <mxPoint x="-6" y="-959" as="sourcePoint" />
            <mxPoint x="50" y="-960" as="targetPoint" />
          </mxGeometry>
        </mxCell>
        <mxCell id="-2fefE5qPqeVteU1_bwN-149" value="&lt;span style=&quot;font-style: normal;&quot;&gt;User&lt;/span&gt;" style="swimlane;fontStyle=3;align=center;verticalAlign=top;childLayout=stackLayout;horizontal=1;startSize=23;horizontalStack=0;resizeParent=1;resizeParentMax=0;resizeLast=0;collapsible=1;marginBottom=0;whiteSpace=wrap;html=1;" vertex="1" parent="1">
          <mxGeometry x="445" y="-2690" width="160" height="261" as="geometry" />
        </mxCell>
        <mxCell id="-2fefE5qPqeVteU1_bwN-150" value="- ID: Integer" style="text;strokeColor=none;fillColor=none;align=left;verticalAlign=top;spacingLeft=4;spacingRight=4;overflow=hidden;rotatable=0;points=[[0,0.5],[1,0.5]];portConstraint=eastwest;whiteSpace=wrap;html=1;" vertex="1" parent="-2fefE5qPqeVteU1_bwN-149">
          <mxGeometry y="23" width="160" height="22" as="geometry" />
        </mxCell>
        <mxCell id="-2fefE5qPqeVteU1_bwN-151" value="- Name: String" style="text;strokeColor=none;fillColor=none;align=left;verticalAlign=top;spacingLeft=4;spacingRight=4;overflow=hidden;rotatable=0;points=[[0,0.5],[1,0.5]];portConstraint=eastwest;whiteSpace=wrap;html=1;" vertex="1" parent="-2fefE5qPqeVteU1_bwN-149">
          <mxGeometry y="45" width="160" height="26" as="geometry" />
        </mxCell>
        <mxCell id="-2fefE5qPqeVteU1_bwN-152" value="- Address: String&lt;br&gt;" style="text;strokeColor=none;fillColor=none;align=left;verticalAlign=top;spacingLeft=4;spacingRight=4;overflow=hidden;rotatable=0;points=[[0,0.5],[1,0.5]];portConstraint=eastwest;whiteSpace=wrap;html=1;" vertex="1" parent="-2fefE5qPqeVteU1_bwN-149">
          <mxGeometry y="71" width="160" height="26" as="geometry" />
        </mxCell>
        <mxCell id="-2fefE5qPqeVteU1_bwN-153" value="- Email: String" style="text;strokeColor=none;fillColor=none;align=left;verticalAlign=top;spacingLeft=4;spacingRight=4;overflow=hidden;rotatable=0;points=[[0,0.5],[1,0.5]];portConstraint=eastwest;whiteSpace=wrap;html=1;" vertex="1" parent="-2fefE5qPqeVteU1_bwN-149">
          <mxGeometry y="97" width="160" height="26" as="geometry" />
        </mxCell>
        <mxCell id="-2fefE5qPqeVteU1_bwN-154" value="- PhoneNumber: String" style="text;strokeColor=none;fillColor=none;align=left;verticalAlign=top;spacingLeft=4;spacingRight=4;overflow=hidden;rotatable=0;points=[[0,0.5],[1,0.5]];portConstraint=eastwest;whiteSpace=wrap;html=1;" vertex="1" parent="-2fefE5qPqeVteU1_bwN-149">
          <mxGeometry y="123" width="160" height="26" as="geometry" />
        </mxCell>
        <mxCell id="-2fefE5qPqeVteU1_bwN-155" value="- Gender: String" style="text;strokeColor=none;fillColor=none;align=left;verticalAlign=top;spacingLeft=4;spacingRight=4;overflow=hidden;rotatable=0;points=[[0,0.5],[1,0.5]];portConstraint=eastwest;whiteSpace=wrap;html=1;" vertex="1" parent="-2fefE5qPqeVteU1_bwN-149">
          <mxGeometry y="149" width="160" height="26" as="geometry" />
        </mxCell>
        <mxCell id="-2fefE5qPqeVteU1_bwN-156" value="- Role: String" style="text;strokeColor=none;fillColor=none;align=left;verticalAlign=top;spacingLeft=4;spacingRight=4;overflow=hidden;rotatable=0;points=[[0,0.5],[1,0.5]];portConstraint=eastwest;whiteSpace=wrap;html=1;" vertex="1" parent="-2fefE5qPqeVteU1_bwN-149">
          <mxGeometry y="175" width="160" height="26" as="geometry" />
        </mxCell>
        <mxCell id="-2fefE5qPqeVteU1_bwN-222" value="- RemainingPages: Integer" style="text;strokeColor=none;fillColor=none;align=left;verticalAlign=top;spacingLeft=4;spacingRight=4;overflow=hidden;rotatable=0;points=[[0,0.5],[1,0.5]];portConstraint=eastwest;whiteSpace=wrap;html=1;" vertex="1" parent="-2fefE5qPqeVteU1_bwN-149">
          <mxGeometry y="201" width="160" height="26" as="geometry" />
        </mxCell>
        <mxCell id="-2fefE5qPqeVteU1_bwN-157" value="" style="line;strokeWidth=1;fillColor=none;align=left;verticalAlign=middle;spacingTop=-1;spacingLeft=3;spacingRight=3;rotatable=0;labelPosition=right;points=[];portConstraint=eastwest;strokeColor=inherit;" vertex="1" parent="-2fefE5qPqeVteU1_bwN-149">
          <mxGeometry y="227" width="160" height="8" as="geometry" />
        </mxCell>
        <mxCell id="-2fefE5qPqeVteU1_bwN-158" value="+ CreateNew(): void" style="text;strokeColor=none;fillColor=none;align=left;verticalAlign=top;spacingLeft=4;spacingRight=4;overflow=hidden;rotatable=0;points=[[0,0.5],[1,0.5]];portConstraint=eastwest;whiteSpace=wrap;html=1;" vertex="1" parent="-2fefE5qPqeVteU1_bwN-149">
          <mxGeometry y="235" width="160" height="26" as="geometry" />
        </mxCell>
        <mxCell id="-2fefE5qPqeVteU1_bwN-161" value="&lt;b&gt;USER DB&lt;/b&gt;" style="swimlane;fontStyle=0;childLayout=stackLayout;horizontal=1;startSize=26;fillColor=none;horizontalStack=0;resizeParent=1;resizeParentMax=0;resizeLast=0;collapsible=1;marginBottom=0;whiteSpace=wrap;html=1;" vertex="1" parent="1">
          <mxGeometry x="430" y="-2340" width="190" height="130" as="geometry" />
        </mxCell>
        <mxCell id="-2fefE5qPqeVteU1_bwN-162" value="+ CreateNew(): void" style="text;strokeColor=none;fillColor=none;align=left;verticalAlign=top;spacingLeft=4;spacingRight=4;overflow=hidden;rotatable=0;points=[[0,0.5],[1,0.5]];portConstraint=eastwest;whiteSpace=wrap;html=1;" vertex="1" parent="-2fefE5qPqeVteU1_bwN-161">
          <mxGeometry y="26" width="190" height="26" as="geometry" />
        </mxCell>
        <mxCell id="-2fefE5qPqeVteU1_bwN-163" value="+ RemoveByID(String): void" style="text;strokeColor=none;fillColor=none;align=left;verticalAlign=top;spacingLeft=4;spacingRight=4;overflow=hidden;rotatable=0;points=[[0,0.5],[1,0.5]];portConstraint=eastwest;whiteSpace=wrap;html=1;" vertex="1" parent="-2fefE5qPqeVteU1_bwN-161">
          <mxGeometry y="52" width="190" height="26" as="geometry" />
        </mxCell>
        <mxCell id="-2fefE5qPqeVteU1_bwN-164" value="+ UpdateUserInfo(User): void" style="text;strokeColor=none;fillColor=none;align=left;verticalAlign=top;spacingLeft=4;spacingRight=4;overflow=hidden;rotatable=0;points=[[0,0.5],[1,0.5]];portConstraint=eastwest;whiteSpace=wrap;html=1;" vertex="1" parent="-2fefE5qPqeVteU1_bwN-161">
          <mxGeometry y="78" width="190" height="26" as="geometry" />
        </mxCell>
        <mxCell id="-2fefE5qPqeVteU1_bwN-165" value="+ GetUserInfoByID(String): User" style="text;strokeColor=none;fillColor=none;align=left;verticalAlign=top;spacingLeft=4;spacingRight=4;overflow=hidden;rotatable=0;points=[[0,0.5],[1,0.5]];portConstraint=eastwest;whiteSpace=wrap;html=1;" vertex="1" parent="-2fefE5qPqeVteU1_bwN-161">
          <mxGeometry y="104" width="190" height="26" as="geometry" />
        </mxCell>
        <mxCell id="-2fefE5qPqeVteU1_bwN-201" value="&quot;View Report&quot; View" style="swimlane;fontStyle=1;align=center;verticalAlign=top;childLayout=stackLayout;horizontal=1;startSize=26;horizontalStack=0;resizeParent=1;resizeParentMax=0;resizeLast=0;collapsible=1;marginBottom=0;whiteSpace=wrap;html=1;" vertex="1" parent="1">
          <mxGeometry x="-640" y="-1590" width="250" height="130" as="geometry" />
        </mxCell>
        <mxCell id="-2fefE5qPqeVteU1_bwN-202" value="+ DisplayRealTimeReport(): void" style="text;strokeColor=none;fillColor=none;align=left;verticalAlign=top;spacingLeft=4;spacingRight=4;overflow=hidden;rotatable=0;points=[[0,0.5],[1,0.5]];portConstraint=eastwest;whiteSpace=wrap;html=1;" vertex="1" parent="-2fefE5qPqeVteU1_bwN-201">
          <mxGeometry y="26" width="250" height="26" as="geometry" />
        </mxCell>
        <mxCell id="-2fefE5qPqeVteU1_bwN-203" value="+ DisplayOldReports(): void" style="text;strokeColor=none;fillColor=none;align=left;verticalAlign=top;spacingLeft=4;spacingRight=4;overflow=hidden;rotatable=0;points=[[0,0.5],[1,0.5]];portConstraint=eastwest;whiteSpace=wrap;html=1;" vertex="1" parent="-2fefE5qPqeVteU1_bwN-201">
          <mxGeometry y="52" width="250" height="26" as="geometry" />
        </mxCell>
        <mxCell id="-2fefE5qPqeVteU1_bwN-204" value="+ DisplayExport(): void" style="text;strokeColor=none;fillColor=none;align=left;verticalAlign=top;spacingLeft=4;spacingRight=4;overflow=hidden;rotatable=0;points=[[0,0.5],[1,0.5]];portConstraint=eastwest;whiteSpace=wrap;html=1;" vertex="1" parent="-2fefE5qPqeVteU1_bwN-201">
          <mxGeometry y="78" width="250" height="26" as="geometry" />
        </mxCell>
        <mxCell id="-2fefE5qPqeVteU1_bwN-205" value="+ DisplayOptionsForAutoGeneration(): void" style="text;strokeColor=none;fillColor=none;align=left;verticalAlign=top;spacingLeft=4;spacingRight=4;overflow=hidden;rotatable=0;points=[[0,0.5],[1,0.5]];portConstraint=eastwest;whiteSpace=wrap;html=1;" vertex="1" parent="-2fefE5qPqeVteU1_bwN-201">
          <mxGeometry y="104" width="250" height="26" as="geometry" />
        </mxCell>
        <mxCell id="-2fefE5qPqeVteU1_bwN-206" value="Report" style="swimlane;fontStyle=1;align=center;verticalAlign=top;childLayout=stackLayout;horizontal=1;startSize=26;horizontalStack=0;resizeParent=1;resizeParentMax=0;resizeLast=0;collapsible=1;marginBottom=0;whiteSpace=wrap;html=1;" vertex="1" parent="1">
          <mxGeometry x="-255" y="-1190" width="160" height="138" as="geometry" />
        </mxCell>
        <mxCell id="-2fefE5qPqeVteU1_bwN-207" value="+ ID: String" style="text;strokeColor=none;fillColor=none;align=left;verticalAlign=top;spacingLeft=4;spacingRight=4;overflow=hidden;rotatable=0;points=[[0,0.5],[1,0.5]];portConstraint=eastwest;whiteSpace=wrap;html=1;" vertex="1" parent="-2fefE5qPqeVteU1_bwN-206">
          <mxGeometry y="26" width="160" height="26" as="geometry" />
        </mxCell>
        <mxCell id="-2fefE5qPqeVteU1_bwN-208" value="+ CreatedTime: Datetime" style="text;strokeColor=none;fillColor=none;align=left;verticalAlign=top;spacingLeft=4;spacingRight=4;overflow=hidden;rotatable=0;points=[[0,0.5],[1,0.5]];portConstraint=eastwest;whiteSpace=wrap;html=1;" vertex="1" parent="-2fefE5qPqeVteU1_bwN-206">
          <mxGeometry y="52" width="160" height="26" as="geometry" />
        </mxCell>
        <mxCell id="-2fefE5qPqeVteU1_bwN-209" value="+ Content: String" style="text;strokeColor=none;fillColor=none;align=left;verticalAlign=top;spacingLeft=4;spacingRight=4;overflow=hidden;rotatable=0;points=[[0,0.5],[1,0.5]];portConstraint=eastwest;whiteSpace=wrap;html=1;" vertex="1" parent="-2fefE5qPqeVteU1_bwN-206">
          <mxGeometry y="78" width="160" height="26" as="geometry" />
        </mxCell>
        <mxCell id="-2fefE5qPqeVteU1_bwN-210" value="" style="line;strokeWidth=1;fillColor=none;align=left;verticalAlign=middle;spacingTop=-1;spacingLeft=3;spacingRight=3;rotatable=0;labelPosition=right;points=[];portConstraint=eastwest;strokeColor=inherit;" vertex="1" parent="-2fefE5qPqeVteU1_bwN-206">
          <mxGeometry y="104" width="160" height="8" as="geometry" />
        </mxCell>
        <mxCell id="-2fefE5qPqeVteU1_bwN-211" value="+ CreateNew(): void" style="text;strokeColor=none;fillColor=none;align=left;verticalAlign=top;spacingLeft=4;spacingRight=4;overflow=hidden;rotatable=0;points=[[0,0.5],[1,0.5]];portConstraint=eastwest;whiteSpace=wrap;html=1;" vertex="1" parent="-2fefE5qPqeVteU1_bwN-206">
          <mxGeometry y="112" width="160" height="26" as="geometry" />
        </mxCell>
        <mxCell id="-2fefE5qPqeVteU1_bwN-212" value="Report DB" style="swimlane;fontStyle=1;align=center;verticalAlign=top;childLayout=stackLayout;horizontal=1;startSize=26;horizontalStack=0;resizeParent=1;resizeParentMax=0;resizeLast=0;collapsible=1;marginBottom=0;whiteSpace=wrap;html=1;" vertex="1" parent="1">
          <mxGeometry x="-310" y="-1400" width="270" height="104" as="geometry" />
        </mxCell>
        <mxCell id="-2fefE5qPqeVteU1_bwN-213" value="+ CreateNew(): void" style="text;strokeColor=none;fillColor=none;align=left;verticalAlign=top;spacingLeft=4;spacingRight=4;overflow=hidden;rotatable=0;points=[[0,0.5],[1,0.5]];portConstraint=eastwest;whiteSpace=wrap;html=1;" vertex="1" parent="-2fefE5qPqeVteU1_bwN-212">
          <mxGeometry y="26" width="270" height="26" as="geometry" />
        </mxCell>
        <mxCell id="-2fefE5qPqeVteU1_bwN-214" value="+ GetReportByID(String): Report" style="text;strokeColor=none;fillColor=none;align=left;verticalAlign=top;spacingLeft=4;spacingRight=4;overflow=hidden;rotatable=0;points=[[0,0.5],[1,0.5]];portConstraint=eastwest;whiteSpace=wrap;html=1;" vertex="1" parent="-2fefE5qPqeVteU1_bwN-212">
          <mxGeometry y="52" width="270" height="26" as="geometry" />
        </mxCell>
        <mxCell id="-2fefE5qPqeVteU1_bwN-215" value="+ GetReportByCreatedTime(Datetime): Report" style="text;strokeColor=none;fillColor=none;align=left;verticalAlign=top;spacingLeft=4;spacingRight=4;overflow=hidden;rotatable=0;points=[[0,0.5],[1,0.5]];portConstraint=eastwest;whiteSpace=wrap;html=1;" vertex="1" parent="-2fefE5qPqeVteU1_bwN-212">
          <mxGeometry y="78" width="270" height="26" as="geometry" />
        </mxCell>
        <mxCell id="-2fefE5qPqeVteU1_bwN-218" value="Use" style="endArrow=open;endSize=12;dashed=1;html=1;rounded=0;exitX=0.477;exitY=0.997;exitDx=0;exitDy=0;exitPerimeter=0;entryX=0.5;entryY=0;entryDx=0;entryDy=0;" edge="1" parent="1" source="-2fefE5qPqeVteU1_bwN-84" target="-2fefE5qPqeVteU1_bwN-140">
          <mxGeometry width="160" relative="1" as="geometry">
            <mxPoint x="680" y="-1110" as="sourcePoint" />
            <mxPoint x="840" y="-1110" as="targetPoint" />
          </mxGeometry>
        </mxCell>
        <mxCell id="-2fefE5qPqeVteU1_bwN-219" value="Use" style="endArrow=open;endSize=12;dashed=1;html=1;rounded=0;exitX=0.515;exitY=1.035;exitDx=0;exitDy=0;exitPerimeter=0;entryX=0.5;entryY=0;entryDx=0;entryDy=0;" edge="1" parent="1" source="JamPujIQLc3dVyAJOux4-6" target="-2fefE5qPqeVteU1_bwN-140">
          <mxGeometry width="160" relative="1" as="geometry">
            <mxPoint x="693" y="-1221" as="sourcePoint" />
            <mxPoint x="430" y="-1160" as="targetPoint" />
          </mxGeometry>
        </mxCell>
        <mxCell id="-2fefE5qPqeVteU1_bwN-220" value="Use" style="endArrow=open;endSize=12;dashed=1;html=1;rounded=0;exitX=0.44;exitY=1.154;exitDx=0;exitDy=0;exitPerimeter=0;entryX=0.5;entryY=0;entryDx=0;entryDy=0;" edge="1" parent="1" source="-2fefE5qPqeVteU1_bwN-89" target="-2fefE5qPqeVteU1_bwN-212">
          <mxGeometry width="160" relative="1" as="geometry">
            <mxPoint x="229" y="-1230" as="sourcePoint" />
            <mxPoint x="440" y="-1150" as="targetPoint" />
          </mxGeometry>
        </mxCell>
        <mxCell id="-2fefE5qPqeVteU1_bwN-221" value="Use" style="endArrow=open;endSize=12;dashed=1;html=1;rounded=0;entryX=0;entryY=0.5;entryDx=0;entryDy=0;exitX=0.5;exitY=0;exitDx=0;exitDy=0;" edge="1" parent="1" source="-2fefE5qPqeVteU1_bwN-118" target="-2fefE5qPqeVteU1_bwN-164">
          <mxGeometry width="160" relative="1" as="geometry">
            <mxPoint x="229" y="-1230" as="sourcePoint" />
            <mxPoint x="440" y="-1150" as="targetPoint" />
          </mxGeometry>
        </mxCell>
        <mxCell id="-2fefE5qPqeVteU1_bwN-224" value="" style="endArrow=diamondThin;endFill=0;endSize=24;html=1;rounded=0;entryX=0.5;entryY=0;entryDx=0;entryDy=0;exitX=0.498;exitY=0.98;exitDx=0;exitDy=0;exitPerimeter=0;" edge="1" parent="1" source="-2fefE5qPqeVteU1_bwN-158" target="-2fefE5qPqeVteU1_bwN-161">
          <mxGeometry width="160" relative="1" as="geometry">
            <mxPoint x="-210.5" y="-966" as="sourcePoint" />
            <mxPoint x="-212.5" y="-1030" as="targetPoint" />
          </mxGeometry>
        </mxCell>
        <mxCell id="-2fefE5qPqeVteU1_bwN-225" value="" style="endArrow=diamondThin;endFill=0;endSize=24;html=1;rounded=0;entryX=0.504;entryY=1.04;entryDx=0;entryDy=0;entryPerimeter=0;exitX=0.5;exitY=0;exitDx=0;exitDy=0;" edge="1" parent="1" source="-2fefE5qPqeVteU1_bwN-206" target="-2fefE5qPqeVteU1_bwN-215">
          <mxGeometry width="160" relative="1" as="geometry">
            <mxPoint x="68" y="-1431" as="sourcePoint" />
            <mxPoint x="64" y="-1550" as="targetPoint" />
          </mxGeometry>
        </mxCell>
        <mxCell id="JamPujIQLc3dVyAJOux4-1" value="SPSO View History Controller" style="swimlane;fontStyle=1;align=center;verticalAlign=top;childLayout=stackLayout;horizontal=1;startSize=26;horizontalStack=0;resizeParent=1;resizeParentMax=0;resizeLast=0;collapsible=1;marginBottom=0;whiteSpace=wrap;html=1;" vertex="1" parent="1">
          <mxGeometry x="123" y="-1990" width="250" height="130" as="geometry" />
        </mxCell>
        <mxCell id="JamPujIQLc3dVyAJOux4-2" value="+ ChooseOne/ManyPrinters(Printer): void" style="text;strokeColor=none;fillColor=none;align=left;verticalAlign=top;spacingLeft=4;spacingRight=4;overflow=hidden;rotatable=0;points=[[0,0.5],[1,0.5]];portConstraint=eastwest;whiteSpace=wrap;html=1;" vertex="1" parent="JamPujIQLc3dVyAJOux4-1">
          <mxGeometry y="26" width="250" height="26" as="geometry" />
        </mxCell>
        <mxCell id="JamPujIQLc3dVyAJOux4-3" value="+ ChooseOne/ManyStudents(Student): void" style="text;strokeColor=none;fillColor=none;align=left;verticalAlign=top;spacingLeft=4;spacingRight=4;overflow=hidden;rotatable=0;points=[[0,0.5],[1,0.5]];portConstraint=eastwest;whiteSpace=wrap;html=1;" vertex="1" parent="JamPujIQLc3dVyAJOux4-1">
          <mxGeometry y="52" width="250" height="26" as="geometry" />
        </mxCell>
        <mxCell id="JamPujIQLc3dVyAJOux4-5" value="+ ApplyFilterToPageSize(): void" style="text;strokeColor=none;fillColor=none;align=left;verticalAlign=top;spacingLeft=4;spacingRight=4;overflow=hidden;rotatable=0;points=[[0,0.5],[1,0.5]];portConstraint=eastwest;whiteSpace=wrap;html=1;" vertex="1" parent="JamPujIQLc3dVyAJOux4-1">
          <mxGeometry y="78" width="250" height="26" as="geometry" />
        </mxCell>
        <mxCell id="JamPujIQLc3dVyAJOux4-6" value="+ ApplyFilterToDatetime(): void" style="text;strokeColor=none;fillColor=none;align=left;verticalAlign=top;spacingLeft=4;spacingRight=4;overflow=hidden;rotatable=0;points=[[0,0.5],[1,0.5]];portConstraint=eastwest;whiteSpace=wrap;html=1;" vertex="1" parent="JamPujIQLc3dVyAJOux4-1">
          <mxGeometry y="104" width="250" height="26" as="geometry" />
        </mxCell>
        <mxCell id="_ilrnHkO1zoC-I6Pmzga-4" value="" style="endArrow=diamondThin;endFill=1;endSize=24;html=1;rounded=0;entryX=0.432;entryY=0.986;entryDx=0;entryDy=0;exitX=0.5;exitY=0;exitDx=0;exitDy=0;entryPerimeter=0;" edge="1" parent="1" source="-2fefE5qPqeVteU1_bwN-201" target="-2fefE5qPqeVteU1_bwN-89">
          <mxGeometry width="160" relative="1" as="geometry">
            <mxPoint x="-640" y="-1550" as="sourcePoint" />
            <mxPoint x="-480" y="-1550" as="targetPoint" />
          </mxGeometry>
        </mxCell>
        <mxCell id="JamPujIQLc3dVyAJOux4-8" value="" style="endArrow=diamondThin;endFill=1;endSize=24;html=1;rounded=0;exitX=0.5;exitY=0;exitDx=0;exitDy=0;entryX=0.503;entryY=1.117;entryDx=0;entryDy=0;entryPerimeter=0;" edge="1" parent="1" source="89oMnxz192IAxO6YzGGd-1" target="-2fefE5qPqeVteU1_bwN-84">
          <mxGeometry width="160" relative="1" as="geometry">
            <mxPoint x="855" y="-1630" as="sourcePoint" />
            <mxPoint x="515" y="-1480" as="targetPoint" />
          </mxGeometry>
        </mxCell>
        <mxCell id="JamPujIQLc3dVyAJOux4-7" value="" style="endArrow=diamondThin;endFill=1;endSize=24;html=1;rounded=0;exitX=0.5;exitY=0;exitDx=0;exitDy=0;entryX=0.5;entryY=0.981;entryDx=0;entryDy=0;entryPerimeter=0;" edge="1" parent="1" source="89oMnxz192IAxO6YzGGd-6" target="JamPujIQLc3dVyAJOux4-6">
          <mxGeometry width="160" relative="1" as="geometry">
            <mxPoint x="140" y="-1590" as="sourcePoint" />
            <mxPoint x="80" y="-1450" as="targetPoint" />
          </mxGeometry>
        </mxCell>
        <mxCell id="_ilrnHkO1zoC-I6Pmzga-43" value="StudentPrintingView" style="swimlane;fontStyle=1;align=center;verticalAlign=top;childLayout=stackLayout;horizontal=1;startSize=26;horizontalStack=0;resizeParent=1;resizeParentMax=0;resizeLast=0;collapsible=1;marginBottom=0;whiteSpace=wrap;html=1;spacingLeft=4;spacingRight=4;fontFamily=Helvetica;fontSize=12;fontColor=default;fillColor=none;gradientColor=none;" vertex="1" parent="1">
          <mxGeometry x="1150" y="-1439" width="280" height="182" as="geometry" />
        </mxCell>
        <mxCell id="_ilrnHkO1zoC-I6Pmzga-46" value="+ CheckDocumentFile(): void" style="text;strokeColor=none;fillColor=none;align=left;verticalAlign=top;spacingLeft=4;spacingRight=4;overflow=hidden;rotatable=0;points=[[0,0.5],[1,0.5]];portConstraint=eastwest;whiteSpace=wrap;html=1;fontSize=12;fontFamily=Helvetica;fontColor=default;" vertex="1" parent="_ilrnHkO1zoC-I6Pmzga-43">
          <mxGeometry y="26" width="280" height="26" as="geometry" />
        </mxCell>
        <mxCell id="_ilrnHkO1zoC-I6Pmzga-47" value="+&amp;nbsp;ShowPropertiesMenu(): void" style="text;strokeColor=none;fillColor=none;align=left;verticalAlign=top;spacingLeft=4;spacingRight=4;overflow=hidden;rotatable=0;points=[[0,0.5],[1,0.5]];portConstraint=eastwest;whiteSpace=wrap;html=1;fontSize=12;fontFamily=Helvetica;fontColor=default;" vertex="1" parent="_ilrnHkO1zoC-I6Pmzga-43">
          <mxGeometry y="52" width="280" height="26" as="geometry" />
        </mxCell>
        <mxCell id="_ilrnHkO1zoC-I6Pmzga-48" value="+ CheckProperties(): void" style="text;strokeColor=none;fillColor=none;align=left;verticalAlign=top;spacingLeft=4;spacingRight=4;overflow=hidden;rotatable=0;points=[[0,0.5],[1,0.5]];portConstraint=eastwest;whiteSpace=wrap;html=1;fontSize=12;fontFamily=Helvetica;fontColor=default;" vertex="1" parent="_ilrnHkO1zoC-I6Pmzga-43">
          <mxGeometry y="78" width="280" height="26" as="geometry" />
        </mxCell>
        <mxCell id="_ilrnHkO1zoC-I6Pmzga-49" value="+ OnClickPrintButton(): void" style="text;strokeColor=none;fillColor=none;align=left;verticalAlign=top;spacingLeft=4;spacingRight=4;overflow=hidden;rotatable=0;points=[[0,0.5],[1,0.5]];portConstraint=eastwest;whiteSpace=wrap;html=1;fontSize=12;fontFamily=Helvetica;fontColor=default;" vertex="1" parent="_ilrnHkO1zoC-I6Pmzga-43">
          <mxGeometry y="104" width="280" height="26" as="geometry" />
        </mxCell>
        <mxCell id="_ilrnHkO1zoC-I6Pmzga-50" value="+ OnClickAcceptButton(): void" style="text;strokeColor=none;fillColor=none;align=left;verticalAlign=top;spacingLeft=4;spacingRight=4;overflow=hidden;rotatable=0;points=[[0,0.5],[1,0.5]];portConstraint=eastwest;whiteSpace=wrap;html=1;fontSize=12;fontFamily=Helvetica;fontColor=default;" vertex="1" parent="_ilrnHkO1zoC-I6Pmzga-43">
          <mxGeometry y="130" width="280" height="26" as="geometry" />
        </mxCell>
        <mxCell id="_ilrnHkO1zoC-I6Pmzga-51" value="+ OnClickRemovePacket(): void" style="text;strokeColor=none;fillColor=none;align=left;verticalAlign=top;spacingLeft=4;spacingRight=4;overflow=hidden;rotatable=0;points=[[0,0.5],[1,0.5]];portConstraint=eastwest;whiteSpace=wrap;html=1;fontSize=12;fontFamily=Helvetica;fontColor=default;" vertex="1" parent="_ilrnHkO1zoC-I6Pmzga-43">
          <mxGeometry y="156" width="280" height="26" as="geometry" />
        </mxCell>
        <mxCell id="JamPujIQLc3dVyAJOux4-9" value="" style="endArrow=diamondThin;endFill=1;endSize=24;html=1;rounded=0;exitX=0.5;exitY=0;exitDx=0;exitDy=0;entryX=0.512;entryY=1.035;entryDx=0;entryDy=0;entryPerimeter=0;" edge="1" parent="1" source="-2fefE5qPqeVteU1_bwN-106" target="-2fefE5qPqeVteU1_bwN-55">
          <mxGeometry width="160" relative="1" as="geometry">
            <mxPoint x="725" y="-1380" as="sourcePoint" />
            <mxPoint x="647" y="-1515" as="targetPoint" />
          </mxGeometry>
        </mxCell>
        <mxCell id="JamPujIQLc3dVyAJOux4-10" value="" style="endArrow=diamondThin;endFill=1;endSize=24;html=1;rounded=0;entryX=0.481;entryY=0.941;entryDx=0;entryDy=0;exitX=0.5;exitY=0;exitDx=0;exitDy=0;entryPerimeter=0;" edge="1" parent="1" source="-2fefE5qPqeVteU1_bwN-112" target="-2fefE5qPqeVteU1_bwN-122">
          <mxGeometry width="160" relative="1" as="geometry">
            <mxPoint x="-550" y="-1555" as="sourcePoint" />
            <mxPoint x="-450" y="-1555" as="targetPoint" />
          </mxGeometry>
        </mxCell>
        <mxCell id="_ilrnHkO1zoC-I6Pmzga-52" value="" style="endArrow=diamondThin;endFill=1;endSize=24;html=1;rounded=0;fontFamily=Helvetica;fontSize=12;fontColor=default;exitX=0.5;exitY=0;exitDx=0;exitDy=0;entryX=0.466;entryY=0.974;entryDx=0;entryDy=0;entryPerimeter=0;" edge="1" parent="1" source="_ilrnHkO1zoC-I6Pmzga-43" target="ItrZ0QdOtL7fP3LYCYVQ-48">
          <mxGeometry width="160" relative="1" as="geometry">
            <mxPoint x="-548" y="-231" as="sourcePoint" />
            <mxPoint x="1259.1599999999999" y="-1538.7259999999999" as="targetPoint" />
          </mxGeometry>
        </mxCell>
        <mxCell id="_ilrnHkO1zoC-I6Pmzga-53" value="BK_Pay Controller" style="swimlane;fontStyle=1;align=center;verticalAlign=top;childLayout=stackLayout;horizontal=1;startSize=26;horizontalStack=0;resizeParent=1;resizeParentMax=0;resizeLast=0;collapsible=1;marginBottom=0;whiteSpace=wrap;html=1;" vertex="1" parent="1">
          <mxGeometry x="2050" y="-1990" width="240" height="78" as="geometry" />
        </mxCell>
        <mxCell id="_ilrnHkO1zoC-I6Pmzga-54" value="+ CreateOrder(Money): bool" style="text;strokeColor=none;fillColor=none;align=left;verticalAlign=top;spacingLeft=4;spacingRight=4;overflow=hidden;rotatable=0;points=[[0,0.5],[1,0.5]];portConstraint=eastwest;whiteSpace=wrap;html=1;" vertex="1" parent="_ilrnHkO1zoC-I6Pmzga-53">
          <mxGeometry y="26" width="240" height="26" as="geometry" />
        </mxCell>
        <mxCell id="_ilrnHkO1zoC-I6Pmzga-55" value="+ PurchasePacket(Order): bool" style="text;strokeColor=none;fillColor=none;align=left;verticalAlign=top;spacingLeft=4;spacingRight=4;overflow=hidden;rotatable=0;points=[[0,0.5],[1,0.5]];portConstraint=eastwest;whiteSpace=wrap;html=1;" vertex="1" parent="_ilrnHkO1zoC-I6Pmzga-53">
          <mxGeometry y="52" width="240" height="26" as="geometry" />
        </mxCell>
        <mxCell id="_ilrnHkO1zoC-I6Pmzga-56" value="" style="endArrow=diamondThin;endFill=1;endSize=24;html=1;rounded=0;fontFamily=Helvetica;fontSize=12;fontColor=default;entryX=1;entryY=0.5;entryDx=0;entryDy=0;exitX=0;exitY=0.5;exitDx=0;exitDy=0;" edge="1" parent="1" source="_ilrnHkO1zoC-I6Pmzga-54" target="ItrZ0QdOtL7fP3LYCYVQ-11">
          <mxGeometry width="160" relative="1" as="geometry">
            <mxPoint x="1200" y="-1780" as="sourcePoint" />
            <mxPoint x="1098.5" y="-2170" as="targetPoint" />
          </mxGeometry>
        </mxCell>
        <mxCell id="_ilrnHkO1zoC-I6Pmzga-58" value="" style="endArrow=none;html=1;rounded=0;entryX=1;entryY=0.5;entryDx=0;entryDy=0;exitX=0.5;exitY=0;exitDx=0;exitDy=0;" edge="1" parent="1" source="ItrZ0QdOtL7fP3LYCYVQ-31" target="-2fefE5qPqeVteU1_bwN-53">
          <mxGeometry width="50" height="50" relative="1" as="geometry">
            <mxPoint x="1260" y="-1630" as="sourcePoint" />
            <mxPoint x="1040" y="-1650" as="targetPoint" />
          </mxGeometry>
        </mxCell>
        <mxCell id="_ilrnHkO1zoC-I6Pmzga-60" value="SPSOConfigView" style="swimlane;fontStyle=1;align=center;verticalAlign=top;childLayout=stackLayout;horizontal=1;startSize=26;horizontalStack=0;resizeParent=1;resizeParentMax=0;resizeLast=0;collapsible=1;marginBottom=0;whiteSpace=wrap;html=1;spacingLeft=4;spacingRight=4;fontFamily=Helvetica;fontSize=12;fontColor=default;fillColor=none;gradientColor=none;" vertex="1" parent="1">
          <mxGeometry x="-1160" y="-1590" width="300" height="138" as="geometry" />
        </mxCell>
        <mxCell id="_ilrnHkO1zoC-I6Pmzga-62" value="" style="line;strokeWidth=1;fillColor=none;align=left;verticalAlign=middle;spacingTop=-1;spacingLeft=3;spacingRight=3;rotatable=0;labelPosition=right;points=[];portConstraint=eastwest;strokeColor=inherit;fontFamily=Helvetica;fontSize=12;fontColor=default;html=1;" vertex="1" parent="_ilrnHkO1zoC-I6Pmzga-60">
          <mxGeometry y="26" width="300" height="8" as="geometry" />
        </mxCell>
        <mxCell id="_ilrnHkO1zoC-I6Pmzga-63" value="+ CheckValidMoney(): void" style="text;strokeColor=none;fillColor=none;align=left;verticalAlign=top;spacingLeft=4;spacingRight=4;overflow=hidden;rotatable=0;points=[[0,0.5],[1,0.5]];portConstraint=eastwest;whiteSpace=wrap;html=1;fontSize=12;fontFamily=Helvetica;fontColor=default;" vertex="1" parent="_ilrnHkO1zoC-I6Pmzga-60">
          <mxGeometry y="34" width="300" height="26" as="geometry" />
        </mxCell>
        <mxCell id="_ilrnHkO1zoC-I6Pmzga-64" value="+ CheckValidNumberPage(): void" style="text;strokeColor=none;fillColor=none;align=left;verticalAlign=top;spacingLeft=4;spacingRight=4;overflow=hidden;rotatable=0;points=[[0,0.5],[1,0.5]];portConstraint=eastwest;whiteSpace=wrap;html=1;fontSize=12;fontFamily=Helvetica;fontColor=default;" vertex="1" parent="_ilrnHkO1zoC-I6Pmzga-60">
          <mxGeometry y="60" width="300" height="26" as="geometry" />
        </mxCell>
        <mxCell id="_ilrnHkO1zoC-I6Pmzga-65" value="+ CheckValidDate(): void" style="text;strokeColor=none;fillColor=none;align=left;verticalAlign=top;spacingLeft=4;spacingRight=4;overflow=hidden;rotatable=0;points=[[0,0.5],[1,0.5]];portConstraint=eastwest;whiteSpace=wrap;html=1;fontSize=12;fontFamily=Helvetica;fontColor=default;" vertex="1" parent="_ilrnHkO1zoC-I6Pmzga-60">
          <mxGeometry y="86" width="300" height="26" as="geometry" />
        </mxCell>
        <mxCell id="_ilrnHkO1zoC-I6Pmzga-66" value="+ SaveConfiguration" style="text;strokeColor=none;fillColor=none;align=left;verticalAlign=top;spacingLeft=4;spacingRight=4;overflow=hidden;rotatable=0;points=[[0,0.5],[1,0.5]];portConstraint=eastwest;whiteSpace=wrap;html=1;fontSize=12;fontFamily=Helvetica;fontColor=default;" vertex="1" parent="_ilrnHkO1zoC-I6Pmzga-60">
          <mxGeometry y="112" width="300" height="26" as="geometry" />
        </mxCell>
        <mxCell id="_ilrnHkO1zoC-I6Pmzga-67" value="SPSO_ConfigController" style="swimlane;fontStyle=1;align=center;verticalAlign=top;childLayout=stackLayout;horizontal=1;startSize=26;horizontalStack=0;resizeParent=1;resizeParentMax=0;resizeLast=0;collapsible=1;marginBottom=0;whiteSpace=wrap;html=1;spacingLeft=4;spacingRight=4;fontFamily=Helvetica;fontSize=12;fontColor=default;fillColor=none;gradientColor=none;" vertex="1" parent="1">
          <mxGeometry x="-790" y="-1990" width="260" height="216" as="geometry" />
        </mxCell>
        <mxCell id="_ilrnHkO1zoC-I6Pmzga-70" value="" style="line;strokeWidth=1;fillColor=none;align=left;verticalAlign=middle;spacingTop=-1;spacingLeft=3;spacingRight=3;rotatable=0;labelPosition=right;points=[];portConstraint=eastwest;strokeColor=inherit;fontFamily=Helvetica;fontSize=12;fontColor=default;html=1;" vertex="1" parent="_ilrnHkO1zoC-I6Pmzga-67">
          <mxGeometry y="26" width="260" height="8" as="geometry" />
        </mxCell>
        <mxCell id="_ilrnHkO1zoC-I6Pmzga-71" value="- CreateConfigView(): bool" style="text;strokeColor=none;fillColor=none;align=left;verticalAlign=top;spacingLeft=4;spacingRight=4;overflow=hidden;rotatable=0;points=[[0,0.5],[1,0.5]];portConstraint=eastwest;whiteSpace=wrap;html=1;fontSize=12;fontFamily=Helvetica;fontColor=default;" vertex="1" parent="_ilrnHkO1zoC-I6Pmzga-67">
          <mxGeometry y="34" width="260" height="26" as="geometry" />
        </mxCell>
        <mxCell id="_ilrnHkO1zoC-I6Pmzga-72" value="+ LoadConfiguration(): ConfigObject" style="text;strokeColor=none;fillColor=none;align=left;verticalAlign=top;spacingLeft=4;spacingRight=4;overflow=hidden;rotatable=0;points=[[0,0.5],[1,0.5]];portConstraint=eastwest;whiteSpace=wrap;html=1;fontSize=12;fontFamily=Helvetica;fontColor=default;" vertex="1" parent="_ilrnHkO1zoC-I6Pmzga-67">
          <mxGeometry y="60" width="260" height="26" as="geometry" />
        </mxCell>
        <mxCell id="_ilrnHkO1zoC-I6Pmzga-73" value="+ IsValidMoney(): bool" style="text;strokeColor=none;fillColor=none;align=left;verticalAlign=top;spacingLeft=4;spacingRight=4;overflow=hidden;rotatable=0;points=[[0,0.5],[1,0.5]];portConstraint=eastwest;whiteSpace=wrap;html=1;fontSize=12;fontFamily=Helvetica;fontColor=default;" vertex="1" parent="_ilrnHkO1zoC-I6Pmzga-67">
          <mxGeometry y="86" width="260" height="26" as="geometry" />
        </mxCell>
        <mxCell id="_ilrnHkO1zoC-I6Pmzga-74" value="+ IsValidNumberPage(): bool" style="text;strokeColor=none;fillColor=none;align=left;verticalAlign=top;spacingLeft=4;spacingRight=4;overflow=hidden;rotatable=0;points=[[0,0.5],[1,0.5]];portConstraint=eastwest;whiteSpace=wrap;html=1;fontSize=12;fontFamily=Helvetica;fontColor=default;" vertex="1" parent="_ilrnHkO1zoC-I6Pmzga-67">
          <mxGeometry y="112" width="260" height="26" as="geometry" />
        </mxCell>
        <mxCell id="_ilrnHkO1zoC-I6Pmzga-75" value="+ IsValidDate(): bool" style="text;strokeColor=none;fillColor=none;align=left;verticalAlign=top;spacingLeft=4;spacingRight=4;overflow=hidden;rotatable=0;points=[[0,0.5],[1,0.5]];portConstraint=eastwest;whiteSpace=wrap;html=1;fontSize=12;fontFamily=Helvetica;fontColor=default;" vertex="1" parent="_ilrnHkO1zoC-I6Pmzga-67">
          <mxGeometry y="138" width="260" height="26" as="geometry" />
        </mxCell>
        <mxCell id="_ilrnHkO1zoC-I6Pmzga-76" value="+ SaveConfiguration: bool" style="text;strokeColor=none;fillColor=none;align=left;verticalAlign=top;spacingLeft=4;spacingRight=4;overflow=hidden;rotatable=0;points=[[0,0.5],[1,0.5]];portConstraint=eastwest;whiteSpace=wrap;html=1;fontSize=12;fontFamily=Helvetica;fontColor=default;" vertex="1" parent="_ilrnHkO1zoC-I6Pmzga-67">
          <mxGeometry y="164" width="260" height="26" as="geometry" />
        </mxCell>
        <mxCell id="_ilrnHkO1zoC-I6Pmzga-77" value="- RemoveConfigView(): bool" style="text;strokeColor=none;fillColor=none;align=left;verticalAlign=top;spacingLeft=4;spacingRight=4;overflow=hidden;rotatable=0;points=[[0,0.5],[1,0.5]];portConstraint=eastwest;whiteSpace=wrap;html=1;fontSize=12;fontFamily=Helvetica;fontColor=default;" vertex="1" parent="_ilrnHkO1zoC-I6Pmzga-67">
          <mxGeometry y="190" width="260" height="26" as="geometry" />
        </mxCell>
        <mxCell id="_ilrnHkO1zoC-I6Pmzga-78" value="ConfigureDatase" style="swimlane;fontStyle=1;align=center;verticalAlign=top;childLayout=stackLayout;horizontal=1;startSize=26;horizontalStack=0;resizeParent=1;resizeParentMax=0;resizeLast=0;collapsible=1;marginBottom=0;whiteSpace=wrap;html=1;spacingLeft=4;spacingRight=4;fontFamily=Helvetica;fontSize=12;fontColor=default;fillColor=none;gradientColor=none;" vertex="1" parent="1">
          <mxGeometry x="-840" y="-1400" width="200" height="112" as="geometry" />
        </mxCell>
        <mxCell id="_ilrnHkO1zoC-I6Pmzga-79" value="ConfigVersion: ConfigObject[]" style="text;strokeColor=none;fillColor=none;align=left;verticalAlign=top;spacingLeft=4;spacingRight=4;overflow=hidden;rotatable=0;points=[[0,0.5],[1,0.5]];portConstraint=eastwest;whiteSpace=wrap;html=1;fontSize=12;fontFamily=Helvetica;fontColor=default;" vertex="1" parent="_ilrnHkO1zoC-I6Pmzga-78">
          <mxGeometry y="26" width="200" height="26" as="geometry" />
        </mxCell>
        <mxCell id="_ilrnHkO1zoC-I6Pmzga-80" value="" style="line;strokeWidth=1;fillColor=none;align=left;verticalAlign=middle;spacingTop=-1;spacingLeft=3;spacingRight=3;rotatable=0;labelPosition=right;points=[];portConstraint=eastwest;strokeColor=inherit;fontFamily=Helvetica;fontSize=12;fontColor=default;html=1;" vertex="1" parent="_ilrnHkO1zoC-I6Pmzga-78">
          <mxGeometry y="52" width="200" height="8" as="geometry" />
        </mxCell>
        <mxCell id="_ilrnHkO1zoC-I6Pmzga-81" value="- CreateNewObject(): ConfigObject" style="text;strokeColor=none;fillColor=none;align=left;verticalAlign=top;spacingLeft=4;spacingRight=4;overflow=hidden;rotatable=0;points=[[0,0.5],[1,0.5]];portConstraint=eastwest;whiteSpace=wrap;html=1;fontSize=12;fontFamily=Helvetica;fontColor=default;" vertex="1" parent="_ilrnHkO1zoC-I6Pmzga-78">
          <mxGeometry y="60" width="200" height="26" as="geometry" />
        </mxCell>
        <mxCell id="_ilrnHkO1zoC-I6Pmzga-82" value="+ AddNewObject(): bool" style="text;strokeColor=none;fillColor=none;align=left;verticalAlign=top;spacingLeft=4;spacingRight=4;overflow=hidden;rotatable=0;points=[[0,0.5],[1,0.5]];portConstraint=eastwest;whiteSpace=wrap;html=1;fontSize=12;fontFamily=Helvetica;fontColor=default;" vertex="1" parent="_ilrnHkO1zoC-I6Pmzga-78">
          <mxGeometry y="86" width="200" height="26" as="geometry" />
        </mxCell>
        <mxCell id="_ilrnHkO1zoC-I6Pmzga-83" value="ConfigObject" style="swimlane;fontStyle=1;align=center;verticalAlign=top;childLayout=stackLayout;horizontal=1;startSize=26;horizontalStack=0;resizeParent=1;resizeParentMax=0;resizeLast=0;collapsible=1;marginBottom=0;whiteSpace=wrap;html=1;spacingLeft=4;spacingRight=4;fontFamily=Helvetica;fontSize=12;fontColor=default;fillColor=none;gradientColor=none;" vertex="1" parent="1">
          <mxGeometry x="-820" y="-1190" width="160" height="130" as="geometry" />
        </mxCell>
        <mxCell id="_ilrnHkO1zoC-I6Pmzga-84" value="- MoneyForOnePage: int" style="text;strokeColor=none;fillColor=none;align=left;verticalAlign=top;spacingLeft=4;spacingRight=4;overflow=hidden;rotatable=0;points=[[0,0.5],[1,0.5]];portConstraint=eastwest;whiteSpace=wrap;html=1;fontSize=12;fontFamily=Helvetica;fontColor=default;" vertex="1" parent="_ilrnHkO1zoC-I6Pmzga-83">
          <mxGeometry y="26" width="160" height="26" as="geometry" />
        </mxCell>
        <mxCell id="_ilrnHkO1zoC-I6Pmzga-85" value="- PrinterList: Printer[]" style="text;strokeColor=none;fillColor=none;align=left;verticalAlign=top;spacingLeft=4;spacingRight=4;overflow=hidden;rotatable=0;points=[[0,0.5],[1,0.5]];portConstraint=eastwest;whiteSpace=wrap;html=1;fontSize=12;fontFamily=Helvetica;fontColor=default;" vertex="1" parent="_ilrnHkO1zoC-I6Pmzga-83">
          <mxGeometry y="52" width="160" height="26" as="geometry" />
        </mxCell>
        <mxCell id="_ilrnHkO1zoC-I6Pmzga-86" value="- NumberOfResetPage: int" style="text;strokeColor=none;fillColor=none;align=left;verticalAlign=top;spacingLeft=4;spacingRight=4;overflow=hidden;rotatable=0;points=[[0,0.5],[1,0.5]];portConstraint=eastwest;whiteSpace=wrap;html=1;fontSize=12;fontFamily=Helvetica;fontColor=default;" vertex="1" parent="_ilrnHkO1zoC-I6Pmzga-83">
          <mxGeometry y="78" width="160" height="26" as="geometry" />
        </mxCell>
        <mxCell id="_ilrnHkO1zoC-I6Pmzga-87" value="- ResetingDate: Datetime" style="text;strokeColor=none;fillColor=none;align=left;verticalAlign=top;spacingLeft=4;spacingRight=4;overflow=hidden;rotatable=0;points=[[0,0.5],[1,0.5]];portConstraint=eastwest;whiteSpace=wrap;html=1;fontSize=12;fontFamily=Helvetica;fontColor=default;" vertex="1" parent="_ilrnHkO1zoC-I6Pmzga-83">
          <mxGeometry y="104" width="160" height="26" as="geometry" />
        </mxCell>
        <mxCell id="_ilrnHkO1zoC-I6Pmzga-89" value="" style="endArrow=diamondThin;endFill=1;endSize=24;html=1;rounded=0;fontFamily=Helvetica;fontSize=12;fontColor=default;exitX=0.5;exitY=0;exitDx=0;exitDy=0;entryX=0.452;entryY=1.024;entryDx=0;entryDy=0;entryPerimeter=0;" edge="1" parent="1" source="_ilrnHkO1zoC-I6Pmzga-60" target="_ilrnHkO1zoC-I6Pmzga-77">
          <mxGeometry width="160" relative="1" as="geometry">
            <mxPoint x="970" y="-640" as="sourcePoint" />
            <mxPoint x="-440" y="-2121" as="targetPoint" />
          </mxGeometry>
        </mxCell>
        <mxCell id="_ilrnHkO1zoC-I6Pmzga-90" value="" style="endArrow=diamondThin;endFill=0;endSize=24;html=1;rounded=0;exitX=0.5;exitY=0;exitDx=0;exitDy=0;entryX=0.501;entryY=1.04;entryDx=0;entryDy=0;entryPerimeter=0;" edge="1" parent="1" source="_ilrnHkO1zoC-I6Pmzga-83" target="_ilrnHkO1zoC-I6Pmzga-82">
          <mxGeometry width="160" relative="1" as="geometry">
            <mxPoint x="-258" y="-1674" as="sourcePoint" />
            <mxPoint x="-220" y="-2710" as="targetPoint" />
          </mxGeometry>
        </mxCell>
        <mxCell id="_ilrnHkO1zoC-I6Pmzga-92" value="Use" style="endArrow=open;endSize=12;dashed=1;html=1;rounded=0;entryX=0.5;entryY=0;entryDx=0;entryDy=0;exitX=0.462;exitY=1.154;exitDx=0;exitDy=0;exitPerimeter=0;" edge="1" parent="1" source="_ilrnHkO1zoC-I6Pmzga-77" target="_ilrnHkO1zoC-I6Pmzga-78">
          <mxGeometry width="160" relative="1" as="geometry">
            <mxPoint y="-2040" as="sourcePoint" />
            <mxPoint x="-195" y="-1994" as="targetPoint" />
          </mxGeometry>
        </mxCell>
        <mxCell id="_ilrnHkO1zoC-I6Pmzga-93" value="" style="endArrow=none;html=1;rounded=0;entryX=0;entryY=0.5;entryDx=0;entryDy=0;exitX=0.5;exitY=0;exitDx=0;exitDy=0;" edge="1" parent="1" source="_ilrnHkO1zoC-I6Pmzga-67" target="-2fefE5qPqeVteU1_bwN-120">
          <mxGeometry width="50" height="50" relative="1" as="geometry">
            <mxPoint x="-260" y="-1720" as="sourcePoint" />
            <mxPoint x="-210" y="-1770" as="targetPoint" />
          </mxGeometry>
        </mxCell>
        <mxCell id="ItrZ0QdOtL7fP3LYCYVQ-7" value="" style="endArrow=none;html=1;rounded=0;exitX=1;exitY=0.5;exitDx=0;exitDy=0;entryX=0.005;entryY=-0.103;entryDx=0;entryDy=0;entryPerimeter=0;" edge="1" parent="1" source="-2fefE5qPqeVteU1_bwN-53" target="ItrZ0QdOtL7fP3LYCYVQ-14">
          <mxGeometry width="50" height="50" relative="1" as="geometry">
            <mxPoint x="1158" y="-1906" as="sourcePoint" />
            <mxPoint x="1040" y="-1880" as="targetPoint" />
          </mxGeometry>
        </mxCell>
        <mxCell id="ItrZ0QdOtL7fP3LYCYVQ-8" value="&lt;b&gt;Student&#39;s &quot;Purchase&quot; Controller&lt;/b&gt;" style="swimlane;fontStyle=0;childLayout=stackLayout;horizontal=1;startSize=26;fillColor=none;horizontalStack=0;resizeParent=1;resizeParentMax=0;resizeLast=0;collapsible=1;marginBottom=0;whiteSpace=wrap;html=1;" vertex="1" parent="1">
          <mxGeometry x="1710" y="-1990" width="235.5" height="156" as="geometry" />
        </mxCell>
        <mxCell id="ItrZ0QdOtL7fP3LYCYVQ-11" value="+ IsValidNumber(PageNo): bool" style="text;strokeColor=none;fillColor=none;align=left;verticalAlign=top;spacingLeft=4;spacingRight=4;overflow=hidden;rotatable=0;points=[[0,0.5],[1,0.5]];portConstraint=eastwest;whiteSpace=wrap;html=1;" vertex="1" parent="ItrZ0QdOtL7fP3LYCYVQ-8">
          <mxGeometry y="26" width="235.5" height="26" as="geometry" />
        </mxCell>
        <mxCell id="ItrZ0QdOtL7fP3LYCYVQ-14" value="+ PurchasePage(PageNo): bool" style="text;strokeColor=none;fillColor=none;align=left;verticalAlign=top;spacingLeft=4;spacingRight=4;overflow=hidden;rotatable=0;points=[[0,0.5],[1,0.5]];portConstraint=eastwest;whiteSpace=wrap;html=1;" vertex="1" parent="ItrZ0QdOtL7fP3LYCYVQ-8">
          <mxGeometry y="52" width="235.5" height="26" as="geometry" />
        </mxCell>
        <mxCell id="ItrZ0QdOtL7fP3LYCYVQ-67" value="- PaymentProcess(Money): bool" style="text;strokeColor=none;fillColor=none;align=left;verticalAlign=top;spacingLeft=4;spacingRight=4;overflow=hidden;rotatable=0;points=[[0,0.5],[1,0.5]];portConstraint=eastwest;whiteSpace=wrap;html=1;" vertex="1" parent="ItrZ0QdOtL7fP3LYCYVQ-8">
          <mxGeometry y="78" width="235.5" height="26" as="geometry" />
        </mxCell>
        <mxCell id="ItrZ0QdOtL7fP3LYCYVQ-69" value="- IncreaseUserPage(PageNo): bool" style="text;strokeColor=none;fillColor=none;align=left;verticalAlign=top;spacingLeft=4;spacingRight=4;overflow=hidden;rotatable=0;points=[[0,0.5],[1,0.5]];portConstraint=eastwest;whiteSpace=wrap;html=1;" vertex="1" parent="ItrZ0QdOtL7fP3LYCYVQ-8">
          <mxGeometry y="104" width="235.5" height="26" as="geometry" />
        </mxCell>
        <mxCell id="ItrZ0QdOtL7fP3LYCYVQ-18" value="- UpdateUserInfo(): bool" style="text;strokeColor=none;fillColor=none;align=left;verticalAlign=top;spacingLeft=4;spacingRight=4;overflow=hidden;rotatable=0;points=[[0,0.5],[1,0.5]];portConstraint=eastwest;whiteSpace=wrap;html=1;" vertex="1" parent="ItrZ0QdOtL7fP3LYCYVQ-8">
          <mxGeometry y="130" width="235.5" height="26" as="geometry" />
        </mxCell>
        <mxCell id="ItrZ0QdOtL7fP3LYCYVQ-12" value="&lt;b&gt;Student&#39;s &quot;Purchase&quot; View&lt;/b&gt;" style="swimlane;fontStyle=0;childLayout=stackLayout;horizontal=1;startSize=26;fillColor=none;horizontalStack=0;resizeParent=1;resizeParentMax=0;resizeLast=0;collapsible=1;marginBottom=0;whiteSpace=wrap;html=1;" vertex="1" parent="1">
          <mxGeometry x="1714" y="-1765" width="235.5" height="78" as="geometry" />
        </mxCell>
        <mxCell id="ItrZ0QdOtL7fP3LYCYVQ-13" value="+ CheckNumberPage(): void" style="text;strokeColor=none;fillColor=none;align=left;verticalAlign=top;spacingLeft=4;spacingRight=4;overflow=hidden;rotatable=0;points=[[0,0.5],[1,0.5]];portConstraint=eastwest;whiteSpace=wrap;html=1;" vertex="1" parent="ItrZ0QdOtL7fP3LYCYVQ-12">
          <mxGeometry y="26" width="235.5" height="26" as="geometry" />
        </mxCell>
        <mxCell id="ItrZ0QdOtL7fP3LYCYVQ-15" value="+ OnCreateAndPayClick(): void" style="text;strokeColor=none;fillColor=none;align=left;verticalAlign=top;spacingLeft=4;spacingRight=4;overflow=hidden;rotatable=0;points=[[0,0.5],[1,0.5]];portConstraint=eastwest;whiteSpace=wrap;html=1;" vertex="1" parent="ItrZ0QdOtL7fP3LYCYVQ-12">
          <mxGeometry y="52" width="235.5" height="26" as="geometry" />
        </mxCell>
        <mxCell id="ItrZ0QdOtL7fP3LYCYVQ-19" value="Use" style="endArrow=open;endSize=12;dashed=1;html=1;rounded=0;exitX=0.5;exitY=0;exitDx=0;exitDy=0;entryX=1;entryY=0.5;entryDx=0;entryDy=0;" edge="1" parent="1" source="ItrZ0QdOtL7fP3LYCYVQ-8" target="-2fefE5qPqeVteU1_bwN-164">
          <mxGeometry width="160" relative="1" as="geometry">
            <mxPoint x="420" y="-1630" as="sourcePoint" />
            <mxPoint x="580" y="-1630" as="targetPoint" />
            <Array as="points">
              <mxPoint x="1290" y="-2230" />
            </Array>
          </mxGeometry>
        </mxCell>
        <mxCell id="ItrZ0QdOtL7fP3LYCYVQ-20" value="Use" style="endArrow=open;endSize=12;dashed=1;html=1;rounded=0;exitX=0.442;exitY=1.122;exitDx=0;exitDy=0;entryX=1;entryY=0.5;entryDx=0;entryDy=0;exitPerimeter=0;" edge="1" parent="1" source="ItrZ0QdOtL7fP3LYCYVQ-48" target="-2fefE5qPqeVteU1_bwN-141">
          <mxGeometry width="160" relative="1" as="geometry">
            <mxPoint x="1120.0000000000005" y="-1553" as="sourcePoint" />
            <mxPoint x="820" y="-1230" as="targetPoint" />
          </mxGeometry>
        </mxCell>
        <mxCell id="ItrZ0QdOtL7fP3LYCYVQ-31" value="Student&#39;s &quot;Printing&quot; Controller" style="swimlane;fontStyle=1;align=center;verticalAlign=top;childLayout=stackLayout;horizontal=1;startSize=26;horizontalStack=0;resizeParent=1;resizeParentMax=0;resizeLast=0;collapsible=1;marginBottom=0;whiteSpace=wrap;html=1;" vertex="1" parent="1">
          <mxGeometry x="1330" y="-1990" width="240" height="476" as="geometry" />
        </mxCell>
        <mxCell id="ItrZ0QdOtL7fP3LYCYVQ-32" value="- Cart: PrintingPacket[]" style="text;strokeColor=none;fillColor=none;align=left;verticalAlign=top;spacingLeft=4;spacingRight=4;overflow=hidden;rotatable=0;points=[[0,0.5],[1,0.5]];portConstraint=eastwest;whiteSpace=wrap;html=1;" vertex="1" parent="ItrZ0QdOtL7fP3LYCYVQ-31">
          <mxGeometry y="26" width="240" height="26" as="geometry" />
        </mxCell>
        <mxCell id="ItrZ0QdOtL7fP3LYCYVQ-33" value="" style="line;strokeWidth=1;fillColor=none;align=left;verticalAlign=middle;spacingTop=-1;spacingLeft=3;spacingRight=3;rotatable=0;labelPosition=right;points=[];portConstraint=eastwest;strokeColor=inherit;" vertex="1" parent="ItrZ0QdOtL7fP3LYCYVQ-31">
          <mxGeometry y="52" width="240" height="8" as="geometry" />
        </mxCell>
        <mxCell id="ItrZ0QdOtL7fP3LYCYVQ-47" value="- CreateStudentView(): bool" style="text;strokeColor=none;fillColor=none;align=left;verticalAlign=top;spacingLeft=4;spacingRight=4;overflow=hidden;rotatable=0;points=[[0,0.5],[1,0.5]];portConstraint=eastwest;whiteSpace=wrap;html=1;" vertex="1" parent="ItrZ0QdOtL7fP3LYCYVQ-31">
          <mxGeometry y="60" width="240" height="26" as="geometry" />
        </mxCell>
        <mxCell id="ItrZ0QdOtL7fP3LYCYVQ-46" value="+ IsValidDocument(Document): bool" style="text;strokeColor=none;fillColor=none;align=left;verticalAlign=top;spacingLeft=4;spacingRight=4;overflow=hidden;rotatable=0;points=[[0,0.5],[1,0.5]];portConstraint=eastwest;whiteSpace=wrap;html=1;" vertex="1" parent="ItrZ0QdOtL7fP3LYCYVQ-31">
          <mxGeometry y="86" width="240" height="26" as="geometry" />
        </mxCell>
        <mxCell id="ItrZ0QdOtL7fP3LYCYVQ-45" value="+ IsValidProperties(Properties[]): bool" style="text;strokeColor=none;fillColor=none;align=left;verticalAlign=top;spacingLeft=4;spacingRight=4;overflow=hidden;rotatable=0;points=[[0,0.5],[1,0.5]];portConstraint=eastwest;whiteSpace=wrap;html=1;" vertex="1" parent="ItrZ0QdOtL7fP3LYCYVQ-31">
          <mxGeometry y="112" width="240" height="26" as="geometry" />
        </mxCell>
        <mxCell id="ItrZ0QdOtL7fP3LYCYVQ-44" value="+ GetPrinterStatus(): Printer[]" style="text;strokeColor=none;fillColor=none;align=left;verticalAlign=top;spacingLeft=4;spacingRight=4;overflow=hidden;rotatable=0;points=[[0,0.5],[1,0.5]];portConstraint=eastwest;whiteSpace=wrap;html=1;" vertex="1" parent="ItrZ0QdOtL7fP3LYCYVQ-31">
          <mxGeometry y="138" width="240" height="26" as="geometry" />
        </mxCell>
        <mxCell id="ItrZ0QdOtL7fP3LYCYVQ-43" value="+ AcceptPrintingOrder(): bool" style="text;strokeColor=none;fillColor=none;align=left;verticalAlign=top;spacingLeft=4;spacingRight=4;overflow=hidden;rotatable=0;points=[[0,0.5],[1,0.5]];portConstraint=eastwest;whiteSpace=wrap;html=1;" vertex="1" parent="ItrZ0QdOtL7fP3LYCYVQ-31">
          <mxGeometry y="164" width="240" height="26" as="geometry" />
        </mxCell>
        <mxCell id="ItrZ0QdOtL7fP3LYCYVQ-42" value="- CreatePrintingPacket(): PrintingPacket" style="text;strokeColor=none;fillColor=none;align=left;verticalAlign=top;spacingLeft=4;spacingRight=4;overflow=hidden;rotatable=0;points=[[0,0.5],[1,0.5]];portConstraint=eastwest;whiteSpace=wrap;html=1;" vertex="1" parent="ItrZ0QdOtL7fP3LYCYVQ-31">
          <mxGeometry y="190" width="240" height="26" as="geometry" />
        </mxCell>
        <mxCell id="ItrZ0QdOtL7fP3LYCYVQ-41" value="- AddPacketToCart(): bool" style="text;strokeColor=none;fillColor=none;align=left;verticalAlign=top;spacingLeft=4;spacingRight=4;overflow=hidden;rotatable=0;points=[[0,0.5],[1,0.5]];portConstraint=eastwest;whiteSpace=wrap;html=1;" vertex="1" parent="ItrZ0QdOtL7fP3LYCYVQ-31">
          <mxGeometry y="216" width="240" height="26" as="geometry" />
        </mxCell>
        <mxCell id="ItrZ0QdOtL7fP3LYCYVQ-40" value="+ RemovePacketFromCart(): bool" style="text;strokeColor=none;fillColor=none;align=left;verticalAlign=top;spacingLeft=4;spacingRight=4;overflow=hidden;rotatable=0;points=[[0,0.5],[1,0.5]];portConstraint=eastwest;whiteSpace=wrap;html=1;" vertex="1" parent="ItrZ0QdOtL7fP3LYCYVQ-31">
          <mxGeometry y="242" width="240" height="26" as="geometry" />
        </mxCell>
        <mxCell id="ItrZ0QdOtL7fP3LYCYVQ-38" value="+ PurchaseCart(): bool" style="text;strokeColor=none;fillColor=none;align=left;verticalAlign=top;spacingLeft=4;spacingRight=4;overflow=hidden;rotatable=0;points=[[0,0.5],[1,0.5]];portConstraint=eastwest;whiteSpace=wrap;html=1;" vertex="1" parent="ItrZ0QdOtL7fP3LYCYVQ-31">
          <mxGeometry y="268" width="240" height="26" as="geometry" />
        </mxCell>
        <mxCell id="ItrZ0QdOtL7fP3LYCYVQ-39" value="- CheckAvailablePage(): bool" style="text;strokeColor=none;fillColor=none;align=left;verticalAlign=top;spacingLeft=4;spacingRight=4;overflow=hidden;rotatable=0;points=[[0,0.5],[1,0.5]];portConstraint=eastwest;whiteSpace=wrap;html=1;" vertex="1" parent="ItrZ0QdOtL7fP3LYCYVQ-31">
          <mxGeometry y="294" width="240" height="26" as="geometry" />
        </mxCell>
        <mxCell id="ItrZ0QdOtL7fP3LYCYVQ-66" value="- PurchasePage(): bool" style="text;strokeColor=none;fillColor=none;align=left;verticalAlign=top;spacingLeft=4;spacingRight=4;overflow=hidden;rotatable=0;points=[[0,0.5],[1,0.5]];portConstraint=eastwest;whiteSpace=wrap;html=1;" vertex="1" parent="ItrZ0QdOtL7fP3LYCYVQ-31">
          <mxGeometry y="320" width="240" height="26" as="geometry" />
        </mxCell>
        <mxCell id="ItrZ0QdOtL7fP3LYCYVQ-68" value="- DecreaseUserPage(): bool" style="text;strokeColor=none;fillColor=none;align=left;verticalAlign=top;spacingLeft=4;spacingRight=4;overflow=hidden;rotatable=0;points=[[0,0.5],[1,0.5]];portConstraint=eastwest;whiteSpace=wrap;html=1;" vertex="1" parent="ItrZ0QdOtL7fP3LYCYVQ-31">
          <mxGeometry y="346" width="240" height="26" as="geometry" />
        </mxCell>
        <mxCell id="ItrZ0QdOtL7fP3LYCYVQ-37" value="- ClearCart(): bool" style="text;strokeColor=none;fillColor=none;align=left;verticalAlign=top;spacingLeft=4;spacingRight=4;overflow=hidden;rotatable=0;points=[[0,0.5],[1,0.5]];portConstraint=eastwest;whiteSpace=wrap;html=1;" vertex="1" parent="ItrZ0QdOtL7fP3LYCYVQ-31">
          <mxGeometry y="372" width="240" height="26" as="geometry" />
        </mxCell>
        <mxCell id="ItrZ0QdOtL7fP3LYCYVQ-36" value="- CreateLog(): Log" style="text;strokeColor=none;fillColor=none;align=left;verticalAlign=top;spacingLeft=4;spacingRight=4;overflow=hidden;rotatable=0;points=[[0,0.5],[1,0.5]];portConstraint=eastwest;whiteSpace=wrap;html=1;" vertex="1" parent="ItrZ0QdOtL7fP3LYCYVQ-31">
          <mxGeometry y="398" width="240" height="26" as="geometry" />
        </mxCell>
        <mxCell id="ItrZ0QdOtL7fP3LYCYVQ-35" value="- UpdateLogDB(): bool" style="text;strokeColor=none;fillColor=none;align=left;verticalAlign=top;spacingLeft=4;spacingRight=4;overflow=hidden;rotatable=0;points=[[0,0.5],[1,0.5]];portConstraint=eastwest;whiteSpace=wrap;html=1;" vertex="1" parent="ItrZ0QdOtL7fP3LYCYVQ-31">
          <mxGeometry y="424" width="240" height="26" as="geometry" />
        </mxCell>
        <mxCell id="ItrZ0QdOtL7fP3LYCYVQ-48" value="- RemoveStudentView(): bool" style="text;strokeColor=none;fillColor=none;align=left;verticalAlign=top;spacingLeft=4;spacingRight=4;overflow=hidden;rotatable=0;points=[[0,0.5],[1,0.5]];portConstraint=eastwest;whiteSpace=wrap;html=1;" vertex="1" parent="ItrZ0QdOtL7fP3LYCYVQ-31">
          <mxGeometry y="450" width="240" height="26" as="geometry" />
        </mxCell>
        <mxCell id="ItrZ0QdOtL7fP3LYCYVQ-50" value="PrintingPacket" style="swimlane;fontStyle=1;align=center;verticalAlign=top;childLayout=stackLayout;horizontal=1;startSize=26;horizontalStack=0;resizeParent=1;resizeParentMax=0;resizeLast=0;collapsible=1;marginBottom=0;whiteSpace=wrap;html=1;" vertex="1" parent="1">
          <mxGeometry x="1560" y="-1439" width="160" height="164" as="geometry" />
        </mxCell>
        <mxCell id="ItrZ0QdOtL7fP3LYCYVQ-51" value="+ NumberOfPage: int" style="text;strokeColor=none;fillColor=none;align=left;verticalAlign=top;spacingLeft=4;spacingRight=4;overflow=hidden;rotatable=0;points=[[0,0.5],[1,0.5]];portConstraint=eastwest;whiteSpace=wrap;html=1;" vertex="1" parent="ItrZ0QdOtL7fP3LYCYVQ-50">
          <mxGeometry y="26" width="160" height="26" as="geometry" />
        </mxCell>
        <mxCell id="ItrZ0QdOtL7fP3LYCYVQ-54" value="+ PageSize: int" style="text;strokeColor=none;fillColor=none;align=left;verticalAlign=top;spacingLeft=4;spacingRight=4;overflow=hidden;rotatable=0;points=[[0,0.5],[1,0.5]];portConstraint=eastwest;whiteSpace=wrap;html=1;" vertex="1" parent="ItrZ0QdOtL7fP3LYCYVQ-50">
          <mxGeometry y="52" width="160" height="26" as="geometry" />
        </mxCell>
        <mxCell id="ItrZ0QdOtL7fP3LYCYVQ-55" value="+ FileName: string" style="text;strokeColor=none;fillColor=none;align=left;verticalAlign=top;spacingLeft=4;spacingRight=4;overflow=hidden;rotatable=0;points=[[0,0.5],[1,0.5]];portConstraint=eastwest;whiteSpace=wrap;html=1;" vertex="1" parent="ItrZ0QdOtL7fP3LYCYVQ-50">
          <mxGeometry y="78" width="160" height="26" as="geometry" />
        </mxCell>
        <mxCell id="ItrZ0QdOtL7fP3LYCYVQ-56" value="+ FileContend: byte[]" style="text;strokeColor=none;fillColor=none;align=left;verticalAlign=top;spacingLeft=4;spacingRight=4;overflow=hidden;rotatable=0;points=[[0,0.5],[1,0.5]];portConstraint=eastwest;whiteSpace=wrap;html=1;" vertex="1" parent="ItrZ0QdOtL7fP3LYCYVQ-50">
          <mxGeometry y="104" width="160" height="26" as="geometry" />
        </mxCell>
        <mxCell id="ItrZ0QdOtL7fP3LYCYVQ-52" value="" style="line;strokeWidth=1;fillColor=none;align=left;verticalAlign=middle;spacingTop=-1;spacingLeft=3;spacingRight=3;rotatable=0;labelPosition=right;points=[];portConstraint=eastwest;strokeColor=inherit;" vertex="1" parent="ItrZ0QdOtL7fP3LYCYVQ-50">
          <mxGeometry y="130" width="160" height="8" as="geometry" />
        </mxCell>
        <mxCell id="ItrZ0QdOtL7fP3LYCYVQ-53" value="+ CreateNew(): void" style="text;strokeColor=none;fillColor=none;align=left;verticalAlign=top;spacingLeft=4;spacingRight=4;overflow=hidden;rotatable=0;points=[[0,0.5],[1,0.5]];portConstraint=eastwest;whiteSpace=wrap;html=1;" vertex="1" parent="ItrZ0QdOtL7fP3LYCYVQ-50">
          <mxGeometry y="138" width="160" height="26" as="geometry" />
        </mxCell>
        <mxCell id="ItrZ0QdOtL7fP3LYCYVQ-59" value="" style="endArrow=diamondThin;endFill=1;endSize=24;html=1;rounded=0;exitX=0.5;exitY=0;exitDx=0;exitDy=0;entryX=0.466;entryY=1.042;entryDx=0;entryDy=0;entryPerimeter=0;" edge="1" parent="1" source="ItrZ0QdOtL7fP3LYCYVQ-50" target="ItrZ0QdOtL7fP3LYCYVQ-48">
          <mxGeometry width="160" relative="1" as="geometry">
            <mxPoint x="1180" y="-1390" as="sourcePoint" />
            <mxPoint x="1590" y="-1050" as="targetPoint" />
          </mxGeometry>
        </mxCell>
        <mxCell id="ItrZ0QdOtL7fP3LYCYVQ-60" value="" style="endArrow=none;html=1;rounded=0;exitX=1;exitY=0.5;exitDx=0;exitDy=0;entryX=0;entryY=0.5;entryDx=0;entryDy=0;" edge="1" parent="1" source="ItrZ0QdOtL7fP3LYCYVQ-47" target="ItrZ0QdOtL7fP3LYCYVQ-67">
          <mxGeometry width="50" height="50" relative="1" as="geometry">
            <mxPoint x="1160" y="-1650" as="sourcePoint" />
            <mxPoint x="1200" y="-1840" as="targetPoint" />
          </mxGeometry>
        </mxCell>
        <mxCell id="ItrZ0QdOtL7fP3LYCYVQ-61" value="" style="endArrow=diamondThin;endFill=1;endSize=24;html=1;rounded=0;fontFamily=Helvetica;fontSize=12;fontColor=default;entryX=0.519;entryY=1.085;entryDx=0;entryDy=0;exitX=0.5;exitY=0;exitDx=0;exitDy=0;entryPerimeter=0;" edge="1" parent="1" source="ItrZ0QdOtL7fP3LYCYVQ-12" target="ItrZ0QdOtL7fP3LYCYVQ-18">
          <mxGeometry width="160" relative="1" as="geometry">
            <mxPoint x="1440" y="-1992" as="sourcePoint" />
            <mxPoint x="1440" y="-2050" as="targetPoint" />
          </mxGeometry>
        </mxCell>
        <mxCell id="jFbyu0e2e_yvfK8VAuCt-1" value="Use" style="endArrow=open;endSize=12;dashed=1;html=1;rounded=0;exitX=0.5;exitY=0;exitDx=0;exitDy=0;entryX=1;entryY=0.5;entryDx=0;entryDy=0;" edge="1" parent="1" source="-2fefE5qPqeVteU1_bwN-47" target="-2fefE5qPqeVteU1_bwN-164">
          <mxGeometry width="160" relative="1" as="geometry">
            <mxPoint x="232" y="-1489" as="sourcePoint" />
            <mxPoint x="440" y="-1150" as="targetPoint" />
          </mxGeometry>
        </mxCell>
        <mxCell id="jFbyu0e2e_yvfK8VAuCt-5" value="Log" style="swimlane;fontStyle=1;align=center;verticalAlign=top;childLayout=stackLayout;horizontal=1;startSize=30;horizontalStack=0;resizeParent=1;resizeParentMax=0;resizeLast=0;collapsible=1;marginBottom=0;whiteSpace=wrap;html=1;" vertex="1" parent="1">
          <mxGeometry x="440" y="-1190" width="170" height="246" as="geometry">
            <mxRectangle x="-510" y="162" width="130" height="30" as="alternateBounds" />
          </mxGeometry>
        </mxCell>
        <mxCell id="jFbyu0e2e_yvfK8VAuCt-6" value="- StudentID: String" style="text;strokeColor=none;fillColor=none;align=left;verticalAlign=top;spacingLeft=4;spacingRight=4;overflow=hidden;rotatable=0;points=[[0,0.5],[1,0.5]];portConstraint=eastwest;whiteSpace=wrap;html=1;" vertex="1" parent="jFbyu0e2e_yvfK8VAuCt-5">
          <mxGeometry y="30" width="170" height="26" as="geometry" />
        </mxCell>
        <mxCell id="jFbyu0e2e_yvfK8VAuCt-7" value="- PrinterID: String" style="text;strokeColor=none;fillColor=none;align=left;verticalAlign=top;spacingLeft=4;spacingRight=4;overflow=hidden;rotatable=0;points=[[0,0.5],[1,0.5]];portConstraint=eastwest;whiteSpace=wrap;html=1;" vertex="1" parent="jFbyu0e2e_yvfK8VAuCt-5">
          <mxGeometry y="56" width="170" height="26" as="geometry" />
        </mxCell>
        <mxCell id="jFbyu0e2e_yvfK8VAuCt-8" value="- FileName: String" style="text;strokeColor=none;fillColor=none;align=left;verticalAlign=top;spacingLeft=4;spacingRight=4;overflow=hidden;rotatable=0;points=[[0,0.5],[1,0.5]];portConstraint=eastwest;whiteSpace=wrap;html=1;" vertex="1" parent="jFbyu0e2e_yvfK8VAuCt-5">
          <mxGeometry y="82" width="170" height="26" as="geometry" />
        </mxCell>
        <mxCell id="jFbyu0e2e_yvfK8VAuCt-9" value="- PrintingStartTime: Datetime" style="text;strokeColor=none;fillColor=none;align=left;verticalAlign=top;spacingLeft=4;spacingRight=4;overflow=hidden;rotatable=0;points=[[0,0.5],[1,0.5]];portConstraint=eastwest;whiteSpace=wrap;html=1;" vertex="1" parent="jFbyu0e2e_yvfK8VAuCt-5">
          <mxGeometry y="108" width="170" height="26" as="geometry" />
        </mxCell>
        <mxCell id="jFbyu0e2e_yvfK8VAuCt-10" value="- PrintingEndTime: Datetime" style="text;strokeColor=none;fillColor=none;align=left;verticalAlign=top;spacingLeft=4;spacingRight=4;overflow=hidden;rotatable=0;points=[[0,0.5],[1,0.5]];portConstraint=eastwest;whiteSpace=wrap;html=1;" vertex="1" parent="jFbyu0e2e_yvfK8VAuCt-5">
          <mxGeometry y="134" width="170" height="26" as="geometry" />
        </mxCell>
        <mxCell id="jFbyu0e2e_yvfK8VAuCt-11" value="- PageSize: String" style="text;strokeColor=none;fillColor=none;align=left;verticalAlign=top;spacingLeft=4;spacingRight=4;overflow=hidden;rotatable=0;points=[[0,0.5],[1,0.5]];portConstraint=eastwest;whiteSpace=wrap;html=1;" vertex="1" parent="jFbyu0e2e_yvfK8VAuCt-5">
          <mxGeometry y="160" width="170" height="26" as="geometry" />
        </mxCell>
        <mxCell id="jFbyu0e2e_yvfK8VAuCt-12" value="- NumberOfPages: Integer" style="text;strokeColor=none;fillColor=none;align=left;verticalAlign=top;spacingLeft=4;spacingRight=4;overflow=hidden;rotatable=0;points=[[0,0.5],[1,0.5]];portConstraint=eastwest;whiteSpace=wrap;html=1;" vertex="1" parent="jFbyu0e2e_yvfK8VAuCt-5">
          <mxGeometry y="186" width="170" height="26" as="geometry" />
        </mxCell>
        <mxCell id="jFbyu0e2e_yvfK8VAuCt-13" value="" style="line;strokeWidth=1;fillColor=none;align=left;verticalAlign=middle;spacingTop=-1;spacingLeft=3;spacingRight=3;rotatable=0;labelPosition=right;points=[];portConstraint=eastwest;strokeColor=inherit;" vertex="1" parent="jFbyu0e2e_yvfK8VAuCt-5">
          <mxGeometry y="212" width="170" height="8" as="geometry" />
        </mxCell>
        <mxCell id="jFbyu0e2e_yvfK8VAuCt-14" value="+ CreateNew(): void" style="text;strokeColor=none;fillColor=none;align=left;verticalAlign=top;spacingLeft=4;spacingRight=4;overflow=hidden;rotatable=0;points=[[0,0.5],[1,0.5]];portConstraint=eastwest;whiteSpace=wrap;html=1;" vertex="1" parent="jFbyu0e2e_yvfK8VAuCt-5">
          <mxGeometry y="220" width="170" height="26" as="geometry" />
        </mxCell>
        <mxCell id="89oMnxz192IAxO6YzGGd-1" value="Student&#39;s &quot;View History&quot; View" style="swimlane;fontStyle=1;align=center;verticalAlign=top;childLayout=stackLayout;horizontal=1;startSize=26;horizontalStack=0;resizeParent=1;resizeParentMax=0;resizeLast=0;collapsible=1;marginBottom=0;whiteSpace=wrap;html=1;" vertex="1" parent="1">
          <mxGeometry x="730" y="-1608" width="240" height="130" as="geometry" />
        </mxCell>
        <mxCell id="89oMnxz192IAxO6YzGGd-2" value="+ DisplayUserHistory(): void" style="text;strokeColor=none;fillColor=none;align=left;verticalAlign=top;spacingLeft=4;spacingRight=4;overflow=hidden;rotatable=0;points=[[0,0.5],[1,0.5]];portConstraint=eastwest;whiteSpace=wrap;html=1;" vertex="1" parent="89oMnxz192IAxO6YzGGd-1">
          <mxGeometry y="26" width="240" height="26" as="geometry" />
        </mxCell>
        <mxCell id="89oMnxz192IAxO6YzGGd-3" value="+ DisplaySummaryOfPrintedPages(): void" style="text;strokeColor=none;fillColor=none;align=left;verticalAlign=top;spacingLeft=4;spacingRight=4;overflow=hidden;rotatable=0;points=[[0,0.5],[1,0.5]];portConstraint=eastwest;whiteSpace=wrap;html=1;" vertex="1" parent="89oMnxz192IAxO6YzGGd-1">
          <mxGeometry y="52" width="240" height="26" as="geometry" />
        </mxCell>
        <mxCell id="89oMnxz192IAxO6YzGGd-4" value="+ DisplayFilterForPrinter(): void" style="text;strokeColor=none;fillColor=none;align=left;verticalAlign=top;spacingLeft=4;spacingRight=4;overflow=hidden;rotatable=0;points=[[0,0.5],[1,0.5]];portConstraint=eastwest;whiteSpace=wrap;html=1;" vertex="1" parent="89oMnxz192IAxO6YzGGd-1">
          <mxGeometry y="78" width="240" height="26" as="geometry" />
        </mxCell>
        <mxCell id="89oMnxz192IAxO6YzGGd-5" value="+ DisplayFilterForDatetime(): void" style="text;strokeColor=none;fillColor=none;align=left;verticalAlign=top;spacingLeft=4;spacingRight=4;overflow=hidden;rotatable=0;points=[[0,0.5],[1,0.5]];portConstraint=eastwest;whiteSpace=wrap;html=1;" vertex="1" parent="89oMnxz192IAxO6YzGGd-1">
          <mxGeometry y="104" width="240" height="26" as="geometry" />
        </mxCell>
        <mxCell id="89oMnxz192IAxO6YzGGd-6" value="SPSO&#39;s &quot;View History&quot; View" style="swimlane;fontStyle=1;align=center;verticalAlign=top;childLayout=stackLayout;horizontal=1;startSize=26;horizontalStack=0;resizeParent=1;resizeParentMax=0;resizeLast=0;collapsible=1;marginBottom=0;whiteSpace=wrap;html=1;" vertex="1" parent="1">
          <mxGeometry x="40" y="-1608" width="190" height="130" as="geometry" />
        </mxCell>
        <mxCell id="89oMnxz192IAxO6YzGGd-7" value="+ DisplayAllHistory(): void" style="text;strokeColor=none;fillColor=none;align=left;verticalAlign=top;spacingLeft=4;spacingRight=4;overflow=hidden;rotatable=0;points=[[0,0.5],[1,0.5]];portConstraint=eastwest;whiteSpace=wrap;html=1;" vertex="1" parent="89oMnxz192IAxO6YzGGd-6">
          <mxGeometry y="26" width="190" height="26" as="geometry" />
        </mxCell>
        <mxCell id="89oMnxz192IAxO6YzGGd-8" value="+ DisplayFilterForPrinter(): void" style="text;strokeColor=none;fillColor=none;align=left;verticalAlign=top;spacingLeft=4;spacingRight=4;overflow=hidden;rotatable=0;points=[[0,0.5],[1,0.5]];portConstraint=eastwest;whiteSpace=wrap;html=1;" vertex="1" parent="89oMnxz192IAxO6YzGGd-6">
          <mxGeometry y="52" width="190" height="26" as="geometry" />
        </mxCell>
        <mxCell id="89oMnxz192IAxO6YzGGd-9" value="+ DisplayFilterForStudent(): void" style="text;strokeColor=none;fillColor=none;align=left;verticalAlign=top;spacingLeft=4;spacingRight=4;overflow=hidden;rotatable=0;points=[[0,0.5],[1,0.5]];portConstraint=eastwest;whiteSpace=wrap;html=1;" vertex="1" parent="89oMnxz192IAxO6YzGGd-6">
          <mxGeometry y="78" width="190" height="26" as="geometry" />
        </mxCell>
        <mxCell id="89oMnxz192IAxO6YzGGd-10" value="+ DisplayFilterForDatetime(): void" style="text;strokeColor=none;fillColor=none;align=left;verticalAlign=top;spacingLeft=4;spacingRight=4;overflow=hidden;rotatable=0;points=[[0,0.5],[1,0.5]];portConstraint=eastwest;whiteSpace=wrap;html=1;" vertex="1" parent="89oMnxz192IAxO6YzGGd-6">
          <mxGeometry y="104" width="190" height="26" as="geometry" />
        </mxCell>
      </root>
    </mxGraphModel>
  </diagram>
</mxfile>
